<svg width="32" height="32" viewBox="0 0 32 32" fill="none" xmlns="http://www.w3.org/2000/svg">
<path d="M2.40642 8.046C-0.350827 12.0087 -0.0075773 17.165 2.09867 21.376C2.14867 21.477 2.20117 21.5762 2.25292 21.6755L2.35142 21.8652L2.41292 21.9745L2.52267 22.171C2.58817 22.2862 2.65517 22.4011 2.72367 22.5157L2.83842 22.7048C2.91442 22.8273 2.99217 22.9489 3.07167 23.0697L3.17117 23.2232C3.28092 23.387 3.39317 23.5505 3.50917 23.711L3.51892 23.7235L3.57592 23.8005C3.67642 23.9388 3.77909 24.0754 3.88392 24.2102L3.99992 24.3577C4.09326 24.4749 4.18809 24.5915 4.28442 24.7075L4.39317 24.8375C4.52291 24.9906 4.65509 25.1416 4.78967 25.2905L4.79792 25.2987L4.81317 25.3158C4.94543 25.4593 5.07977 25.6009 5.21617 25.7405L5.34542 25.8708C5.45126 25.9771 5.55851 26.0822 5.66717 26.1862L5.79892 26.3112C5.94376 26.4479 6.09076 26.5818 6.23992 26.713L6.24692 26.7185L6.32367 26.784C6.45567 26.8983 6.58926 27.0111 6.72442 27.1222L6.89042 27.2545C7.00076 27.343 7.11209 27.43 7.22442 27.5155L7.40292 27.6512C7.52692 27.7426 7.65184 27.8322 7.77767 27.92L7.91417 28.0168L7.95167 28.0435C8.07117 28.1257 8.19342 28.205 8.31567 28.2843L8.47317 28.3892C8.66067 28.5077 8.85067 28.625 9.04292 28.7382L9.20042 28.827C9.34159 28.9087 9.48409 28.9886 9.62792 29.0667C9.70592 29.1087 9.78592 29.1485 9.86442 29.1887C9.96617 29.242 10.0672 29.296 10.1707 29.3477L10.2414 29.382L10.3667 29.4425C10.5268 29.5192 10.6885 29.5939 10.8517 29.6667L10.9542 29.7127C11.1413 29.7946 11.3299 29.873 11.5199 29.948L11.6577 30.0022C11.8337 30.07 12.0122 30.137 12.1914 30.2L12.2584 30.2232C12.4552 30.292 12.6537 30.3557 12.8537 30.418L12.9974 30.461C13.2009 30.5223 13.4022 30.5955 13.6119 30.6342C26.9467 33.066 30.8202 22.621 30.8202 22.621C27.5669 26.8593 21.7924 27.9773 16.3212 26.7325C16.1139 26.6858 15.9129 26.621 15.7107 26.5612L15.5584 26.515C15.3614 26.4546 15.1653 26.3908 14.9704 26.3237L14.8897 26.2945C14.7159 26.2331 14.543 26.169 14.3712 26.1022L14.2257 26.045C14.0373 25.9708 13.8508 25.8933 13.6659 25.8123L13.5542 25.7627C13.3959 25.6913 13.2385 25.618 13.0819 25.543L12.9454 25.4775C12.8227 25.4177 12.7012 25.3542 12.5802 25.2917C12.4992 25.249 12.4167 25.2087 12.3364 25.1642C12.1891 25.0849 12.0432 25.0031 11.8987 24.9187L11.7509 24.8363C11.559 24.723 11.369 24.6065 11.1809 24.487L11.0272 24.3845C10.8904 24.2968 10.7552 24.2069 10.6214 24.1147L10.4909 24.023C10.3621 23.9319 10.2343 23.8395 10.1074 23.7458L9.93767 23.6173C9.82113 23.5286 9.70578 23.4385 9.59167 23.3468L9.43742 23.223C9.29212 23.1039 9.14844 22.9828 9.00642 22.8597L8.95917 22.82C8.80618 22.685 8.65516 22.5477 8.50617 22.4082L8.37842 22.2855C8.26817 22.1805 8.15967 22.0747 8.05292 21.9662L7.92542 21.839C7.78996 21.7004 7.65677 21.5595 7.52592 21.4165L7.50617 21.3955C7.36828 21.2443 7.23318 21.0906 7.10092 20.9345L6.99492 20.8085C6.89611 20.6896 6.79885 20.5694 6.70317 20.448L6.59642 20.315C6.48203 20.1671 6.36977 20.0176 6.25967 19.8665C3.22217 15.723 2.13067 10.0085 4.55842 5.3155M10.9657 4.707C8.97142 7.5765 9.07992 11.418 10.6354 14.4527C10.896 14.9628 11.1907 15.4546 11.5174 15.925C11.8162 16.3532 12.1474 16.8627 12.5439 17.2067C12.6889 17.3656 12.8381 17.5205 12.9914 17.6712L13.1094 17.7875C13.2583 17.9326 13.4107 18.0742 13.5664 18.212L13.5849 18.228L13.5894 18.2325C13.7636 18.3842 13.9416 18.5315 14.1232 18.6742L14.2444 18.7687C14.427 18.9094 14.6131 19.0454 14.8027 19.1765L14.8189 19.1887C14.9029 19.2467 14.9884 19.3008 15.0737 19.3568L15.1944 19.4365C15.3304 19.524 15.4683 19.6086 15.6082 19.6903L15.6669 19.7242C15.7879 19.7939 15.9098 19.8621 16.0327 19.9287L16.1629 19.9965C16.2477 20.0408 16.3324 20.086 16.4187 20.129L16.4574 20.1465C16.6332 20.233 16.8104 20.3165 16.9914 20.3953L17.1094 20.4438C17.2542 20.5053 17.4004 20.5653 17.5469 20.6213L17.7344 20.69C17.8677 20.7395 18.0014 20.7845 18.1362 20.8298L18.3179 20.888C18.5097 20.9475 18.6992 21.0227 18.8989 21.056C29.1947 22.7617 31.5717 14.8345 31.5717 14.8345C29.4292 17.9202 25.2797 19.3927 20.8519 18.2432C20.6562 18.1918 20.4617 18.1356 20.2687 18.0747L20.0934 18.018C19.9566 17.9738 19.8207 17.9269 19.6857 17.8775L19.5017 17.809C19.3544 17.7525 19.208 17.6935 19.0627 17.632L18.9444 17.582C18.7634 17.5032 18.5843 17.4199 18.4074 17.3322C18.3167 17.288 18.2274 17.2412 18.1379 17.1952L17.9824 17.1152C17.8677 17.0531 17.7541 16.9889 17.6417 16.9228L17.5602 16.8765C17.4209 16.7953 17.2833 16.7113 17.1474 16.6245L17.0229 16.5415C16.9332 16.4835 16.8441 16.4246 16.7557 16.3647C16.567 16.2335 16.3814 16.0978 16.1992 15.9577L16.0739 15.859C14.1359 14.329 12.5994 12.2375 11.8692 9.86625C11.1037 7.40725 11.2687 4.64675 12.5949 2.40625M18.1644 2.2125C16.9889 3.9425 16.8734 6.091 17.6892 8.0015C18.5494 10.0297 20.3119 11.6205 22.3692 12.3752C22.4539 12.4065 22.5389 12.4345 22.6247 12.4637L22.7374 12.4995C22.8587 12.5375 22.9789 12.5817 23.1042 12.6055C28.7892 13.704 30.3312 9.68825 30.7414 9.097C29.3909 11.0417 27.1209 11.5085 24.3357 10.8325C24.1157 10.7792 23.8739 10.6997 23.6619 10.6245C23.3895 10.5278 23.1224 10.4169 22.8617 10.2922C22.3667 10.0543 21.8967 9.76757 21.4587 9.43625C18.9664 7.545 17.4182 3.93775 19.0444 1" fill="#0868AC"/>
</svg>
