<svg width="33" height="32" viewBox="0 0 33 32" fill="none" xmlns="http://www.w3.org/2000/svg">
<g clip-path="url(#clip0_25_106)">
<path fill-rule="evenodd" clip-rule="evenodd" d="M24.0006 3.24628L24.2539 3.40229L26.8939 5.16228C27.2278 5.38512 27.5071 5.68047 27.711 6.0263C27.9149 6.37214 28.038 6.75955 28.0712 7.15962L28.0806 7.38095V24.0996C28.0805 24.7357 27.8531 25.3507 27.4395 25.8339C27.0258 26.317 26.453 26.6363 25.8246 26.7343L25.6179 26.7583L10.2459 27.941C9.83673 27.9724 9.42582 27.909 9.04516 27.7557C8.6645 27.6023 8.32436 27.3632 8.05123 27.057L7.90857 26.8823L4.88057 22.845C4.42038 22.2312 4.14638 21.4981 4.09123 20.733L4.08057 20.445V6.56895C4.08061 5.93291 4.30799 5.31783 4.72168 4.83471C5.13537 4.35159 5.70811 4.03224 6.33657 3.93428L6.54323 3.91028L21.7272 2.74228C22.5178 2.68139 23.3086 2.85682 23.9992 3.24628H24.0006ZM25.4139 9.44095L10.7472 10.569V25.2276L25.4139 24.0996V9.44095ZM21.4139 11.3343C21.7675 11.3343 22.1067 11.4748 22.3567 11.7248C22.6068 11.9749 22.7472 12.314 22.7472 12.6676V22.001C22.7472 22.3546 22.6068 22.6937 22.3567 22.9438C22.1067 23.1938 21.7675 23.3343 21.4139 23.3343H20.7472C20.5194 23.3343 20.2954 23.276 20.0966 23.1649C19.8977 23.0538 19.7306 22.8936 19.6112 22.6996L16.0806 16.961V22.6676C16.0806 23.0212 15.9401 23.3604 15.69 23.6104C15.44 23.8605 15.1009 24.001 14.7472 24.001C14.3936 24.001 14.0545 23.8605 13.8044 23.6104C13.5544 23.3604 13.4139 23.0212 13.4139 22.6676V13.3343C13.4139 12.9807 13.5544 12.6415 13.8044 12.3915C14.0545 12.1414 14.3936 12.001 14.7472 12.001H15.4139C15.6417 12.0009 15.8657 12.0592 16.0646 12.1703C16.2634 12.2814 16.4305 12.4416 16.5499 12.6356L20.0806 18.373V12.6676C20.0806 12.314 20.221 11.9749 20.4711 11.7248C20.7211 11.4748 21.0603 11.3343 21.4139 11.3343ZM21.9312 5.40095L8.40723 6.44095L9.92323 7.95695L24.5872 6.83029L22.7739 5.62095C22.5256 5.45536 22.2288 5.3779 21.9312 5.40095Z" fill="black"/>
</g>
<defs>
<clipPath id="clip0_25_106">
<rect width="32" height="32" fill="white" transform="translate(0.0805664)"/>
</clipPath>
</defs>
</svg>
