<svg width="31" height="34" viewBox="0 0 31 34" fill="none" xmlns="http://www.w3.org/2000/svg">
<path d="M8.99951 17C8.99951 8.1632 11.8635 1 15.3995 1C18.9355 1 21.7995 8.1632 21.7995 17C21.7995 25.8368 18.9355 33 15.3995 33C11.8635 33 8.99951 25.8368 8.99951 17Z" stroke="#057493" stroke-width="2" stroke-linecap="round" stroke-linejoin="round"/>
<path d="M12.1595 11.5924C19.9067 7.17324 27.6379 6.07244 29.4267 9.13324C31.2155 12.194 26.3867 18.258 18.6395 22.6756C10.8923 27.0932 3.16114 28.1956 1.37234 25.1332C-0.41646 22.0724 4.41234 16.0116 12.1595 11.5924Z" stroke="#057493" stroke-width="2" stroke-linecap="round" stroke-linejoin="round"/>
<path d="M18.6395 11.5924C26.3867 16.0084 31.2155 22.0724 29.4267 25.1332C27.6379 28.1956 19.9067 27.0948 12.1595 22.6756C4.41234 18.2564 -0.41646 12.1956 1.37234 9.13324C3.15954 6.07244 10.8923 7.17324 18.6395 11.5924Z" stroke="#057493" stroke-width="2" stroke-linecap="round" stroke-linejoin="round"/>
<path d="M17.7995 16.9996C17.7995 17.6361 17.5467 18.2466 17.0966 18.6967C16.6465 19.1468 16.036 19.3996 15.3995 19.3996C14.763 19.3996 14.1525 19.1468 13.7025 18.6967C13.2524 18.2466 12.9995 17.6361 12.9995 16.9996C12.9995 16.3631 13.2524 15.7526 13.7025 15.3026C14.1525 14.8525 14.763 14.5996 15.3995 14.5996C16.036 14.5996 16.6465 14.8525 17.0966 15.3026C17.5467 15.7526 17.7995 16.3631 17.7995 16.9996Z" stroke="#057493" stroke-width="2" stroke-linecap="round" stroke-linejoin="round"/>
</svg>
