<svg width="33" height="32" viewBox="0 0 33 32" fill="none" xmlns="http://www.w3.org/2000/svg">
<g clip-path="url(#clip0_25_71)">
<path d="M15.3947 0.667291L1.40947 14.6408C1.23062 14.8189 1.08872 15.0307 0.991887 15.2638C0.895059 15.4969 0.845215 15.7469 0.845215 15.9993C0.845215 16.2517 0.895059 16.5017 0.991887 16.7348C1.08872 16.9679 1.23062 17.1796 1.40947 17.3578L15.3947 31.3313C15.5731 31.5098 15.785 31.6515 16.0181 31.7481C16.2513 31.8447 16.5012 31.8945 16.7536 31.8945C17.006 31.8945 17.2559 31.8447 17.4891 31.7481C17.7222 31.6515 17.9341 31.5098 18.1125 31.3313L23.9767 25.472C24.1367 25.3121 24.2637 25.1222 24.3503 24.9131C24.4369 24.7041 24.4815 24.4801 24.4815 24.2538C24.4815 24.0275 24.4369 23.8035 24.3503 23.5944C24.2637 23.3854 24.1367 23.1955 23.9767 23.0355C23.6533 22.7124 23.2147 22.5308 22.7575 22.5308C22.3002 22.5308 21.8617 22.7124 21.5382 23.0355L17.0932 27.4768C16.9057 27.6643 16.6212 27.6643 16.4347 27.4768L5.26597 16.3185C5.07922 16.131 5.07922 15.847 5.26597 15.6605L16.4347 4.50129C16.6212 4.31479 16.9055 4.31479 17.093 4.50129L21.5382 8.94254C21.8617 9.26573 22.3002 9.44727 22.7575 9.44727C23.2147 9.44727 23.6533 9.26573 23.9767 8.94254C24.1367 8.78258 24.2637 8.59266 24.3503 8.38363C24.4369 8.1746 24.4815 7.95055 24.4815 7.72429C24.4815 7.49803 24.4369 7.27398 24.3503 7.06495C24.2637 6.85592 24.1367 6.666 23.9767 6.50604L18.1135 0.647791C17.3585 -0.0867088 16.1437 -0.0807089 15.3947 0.667291Z" fill="url(#paint0_linear_25_71)"/>
<path d="M15.3947 0.667291L1.40947 14.6408C1.23062 14.8189 1.08872 15.0307 0.991887 15.2638C0.895059 15.4969 0.845215 15.7469 0.845215 15.9993C0.845215 16.2517 0.895059 16.5017 0.991887 16.7348C1.08872 16.9679 1.23062 17.1796 1.40947 17.3578L15.3947 31.3313C15.5731 31.5098 15.785 31.6515 16.0181 31.7481C16.2513 31.8447 16.5012 31.8945 16.7536 31.8945C17.006 31.8945 17.2559 31.8447 17.4891 31.7481C17.7222 31.6515 17.9341 31.5098 18.1125 31.3313L23.9767 25.472C24.1367 25.3121 24.2637 25.1222 24.3503 24.9131C24.4369 24.7041 24.4815 24.4801 24.4815 24.2538C24.4815 24.0275 24.4369 23.8035 24.3503 23.5944C24.2637 23.3854 24.1367 23.1955 23.9767 23.0355C23.6533 22.7124 23.2147 22.5308 22.7575 22.5308C22.3002 22.5308 21.8617 22.7124 21.5382 23.0355L17.0932 27.4768C16.9057 27.6643 16.6212 27.6643 16.4347 27.4768L5.26597 16.3185C5.07922 16.131 5.07922 15.847 5.26597 15.6605L16.4347 4.50129C16.9007 4.09979 17.6605 3.28629 18.7775 3.09604C19.607 2.95454 20.5139 3.26571 21.4982 4.02954C20.8402 3.37154 19.712 2.24429 18.1135 0.647791C17.3585 -0.0867088 16.1437 -0.0807089 15.3947 0.667291Z" fill="url(#paint1_linear_25_71)"/>
<path d="M25.3303 21.7365C25.6538 22.0596 26.0922 22.2411 26.5494 22.2411C27.0066 22.2411 27.4451 22.0596 27.7686 21.7365L32.0938 17.4153C32.2726 17.2372 32.4144 17.0256 32.5112 16.7925C32.6079 16.5595 32.6577 16.3097 32.6577 16.0574C32.6577 15.8051 32.6079 15.5552 32.5112 15.3222C32.4144 15.0892 32.2726 14.8776 32.0938 14.6995L27.7306 10.3548C27.4063 10.032 26.9672 9.851 26.5097 9.85156C26.0522 9.85213 25.6135 10.0342 25.2901 10.3578C25.1299 10.5176 25.0028 10.7075 24.916 10.9166C24.8293 11.1256 24.7847 11.3497 24.7847 11.576C24.7847 11.8023 24.8293 12.0264 24.916 12.2355C25.0028 12.4445 25.1299 12.6344 25.2901 12.7943L28.2376 15.7385C28.2817 15.7811 28.3169 15.8321 28.3408 15.8886C28.3648 15.9451 28.3772 16.0058 28.3772 16.0671C28.3772 16.1285 28.3648 16.1892 28.3408 16.2457C28.3169 16.3021 28.2817 16.3532 28.2376 16.3958L25.3301 19.301C25.1699 19.4608 25.0428 19.6506 24.9561 19.8595C24.8694 20.0685 24.8248 20.2925 24.8248 20.5188C24.8248 20.745 24.8694 20.969 24.9561 21.178C25.0428 21.3869 25.1701 21.5767 25.3303 21.7365Z" fill="url(#paint2_linear_25_71)"/>
<path fill-rule="evenodd" clip-rule="evenodd" d="M20.5996 16.0704C20.5996 13.9864 18.9091 12.2969 16.8231 12.2969C14.7381 12.2969 13.0469 13.9864 13.0469 16.0704C13.0469 18.1534 14.7381 19.8429 16.8231 19.8429C18.9091 19.8429 20.5996 18.1534 20.5996 16.0704Z" fill="url(#paint3_linear_25_71)"/>
</g>
<defs>
<linearGradient id="paint0_linear_25_71" x1="15.5228" y1="0.100791" x2="28.8172" y2="8.22623" gradientUnits="userSpaceOnUse">
<stop stop-color="#4285EB"/>
<stop offset="1" stop-color="#2EC7FF"/>
</linearGradient>
<linearGradient id="paint1_linear_25_71" x1="17.2954" y1="0.100791" x2="10.7316" y2="34.0398" gradientUnits="userSpaceOnUse">
<stop stop-color="#29CDFF"/>
<stop offset="0.379" stop-color="#148EFF"/>
<stop offset="1" stop-color="#0A60FF"/>
</linearGradient>
<linearGradient id="paint2_linear_25_71" x1="30.2718" y1="8.24011" x2="21.7269" y2="21.5997" gradientUnits="userSpaceOnUse">
<stop stop-color="#FA816E"/>
<stop offset="0.415" stop-color="#F74A5C"/>
<stop offset="1" stop-color="#F51D2C"/>
</linearGradient>
<linearGradient id="paint3_linear_25_71" x1="18.1903" y1="9.60324" x2="15.3478" y2="20.9686" gradientUnits="userSpaceOnUse">
<stop stop-color="#FA8E7D"/>
<stop offset="0.513" stop-color="#F74A5C"/>
<stop offset="1" stop-color="#F51D2C"/>
</linearGradient>
<clipPath id="clip0_25_71">
<rect width="32" height="32" fill="white" transform="translate(0.740234)"/>
</clipPath>
</defs>
</svg>
