<svg width="32" height="32" viewBox="0 0 32 32" fill="none" xmlns="http://www.w3.org/2000/svg">
<g clip-path="url(#clip0_25_7)">
<path d="M5.66675 0.400391H26.3333C29.4668 0.400391 32 2.93364 32 6.06714V25.9336C32 29.0671 29.4668 31.6004 26.3333 31.6004H5.66675C2.53325 31.6004 0 29.0671 0 25.9336V6.06714C0 2.93364 2.53325 0.400391 5.66675 0.400391Z" fill="#470137"/>
<path d="M16.8267 8.60033L12.8267 15.2003L17.0932 22.2003C17.12 22.2536 17.1332 22.3071 17.12 22.3603C17.1067 22.4136 17.0532 22.3736 16.9732 22.3871H13.92C13.7067 22.3871 13.56 22.3736 13.4667 22.2403C13.1867 21.6803 12.8932 21.1336 12.6132 20.5736C12.3332 20.0271 12.0267 19.4671 11.7067 18.8936C11.3867 18.3201 11.0667 17.7471 10.7467 17.1603H10.72C10.44 17.7336 10.1332 18.3071 9.82671 18.8803C9.52202 19.4479 9.21977 20.0169 8.91996 20.5871C8.61321 21.1471 8.30671 21.7203 7.99996 22.2671C7.94671 22.4003 7.83996 22.4136 7.69321 22.4136H4.75996C4.70671 22.4136 4.66671 22.4403 4.66671 22.3736C4.66074 22.3487 4.66001 22.3228 4.66458 22.2975C4.66914 22.2723 4.67889 22.2483 4.69321 22.2271L8.83996 15.4271L4.79996 8.58708C4.75996 8.53358 4.74671 8.48033 4.77321 8.45358C4.79996 8.41358 4.85321 8.40033 4.90671 8.40033H7.93321C7.99996 8.40033 8.06671 8.41358 8.11996 8.42708C8.17321 8.45358 8.21321 8.49358 8.25321 8.54708C8.50671 9.12033 8.79996 9.69358 9.10671 10.2671C9.42671 10.8403 9.73321 11.4003 10.0667 11.9603C10.3867 12.5203 10.68 13.0803 10.96 13.6536H10.9867C11.2667 13.0671 11.56 12.4936 11.8532 11.9336C12.1465 11.3736 12.4532 10.8136 12.76 10.2536C13.0667 9.69358 13.36 9.12033 13.6532 8.57358C13.6667 8.52033 13.6932 8.46708 13.7332 8.44033C13.7867 8.41358 13.84 8.40033 13.9067 8.41358H16.72C16.7357 8.41001 16.7521 8.4096 16.768 8.41238C16.7839 8.41515 16.7992 8.42106 16.8128 8.42975C16.8265 8.43844 16.8383 8.44975 16.8475 8.46303C16.8568 8.4763 16.8633 8.49127 16.8667 8.50708C16.88 8.52033 16.8532 8.57358 16.8267 8.60033ZM22.9867 22.6671C22 22.6803 21.0132 22.4803 20.12 22.0671C19.28 21.6803 18.5867 21.0403 18.1067 20.2536C17.6132 19.4403 17.3732 18.4271 17.3732 17.2136C17.36 16.2271 17.6132 15.2536 18.1067 14.4003C18.6132 13.5336 19.3467 12.8136 20.2267 12.3336C21.16 11.8136 22.28 11.5603 23.6 11.5603C23.6667 11.5603 23.76 11.5603 23.88 11.5736C24 11.5871 24.1332 11.5871 24.2932 11.6003V7.38708C24.2932 7.29358 24.3332 7.24033 24.4267 7.24033H27.1332C27.2 7.22708 27.2532 7.28033 27.2667 7.33358V20.0536C27.2667 20.2936 27.28 20.5603 27.2932 20.8536C27.32 21.1336 27.3332 21.4003 27.3467 21.6271C27.3467 21.7203 27.3067 21.8003 27.2132 21.8403C26.5149 22.1339 25.7859 22.3486 25.04 22.4803C24.36 22.6003 23.68 22.6671 22.9867 22.6671ZM24.2932 20.0003V14.1336C24.1732 14.1071 24.0532 14.0803 23.9332 14.0671C23.787 14.0514 23.6402 14.0424 23.4932 14.0403C22.9732 14.0403 22.4532 14.1471 21.9867 14.3871C21.5311 14.6141 21.1409 14.9536 20.8532 15.3736C20.56 15.8003 20.4132 16.3736 20.4132 17.0671C20.4018 17.535 20.4788 18.0009 20.64 18.4403C20.7732 18.8003 20.9732 19.1203 21.24 19.3871C21.497 19.6325 21.8073 19.815 22.1467 19.9203C22.5067 20.0403 22.88 20.0936 23.2532 20.0936C23.4532 20.0936 23.64 20.0803 23.8132 20.0671C23.9867 20.0803 24.1332 20.0536 24.2932 20.0003Z" fill="#FF61F6"/>
</g>
<defs>
<clipPath id="clip0_25_7">
<rect width="32" height="32" fill="white"/>
</clipPath>
</defs>
</svg>
