<svg width="33" height="32" viewBox="0 0 33 32" fill="none" xmlns="http://www.w3.org/2000/svg">
<g clip-path="url(#clip0_25_114)">
<path d="M28.3599 6.51706C23.1227 -0.264937 13.3784 -1.51694 6.59615 3.72131C-0.185097 8.95956 -1.43585 18.7038 3.8024 25.4851C9.04165 32.2661 18.7867 33.5161 25.5669 28.2768C32.3454 23.0386 33.5964 13.2973 28.3599 6.51706Z" fill="#F37036"/>
<path d="M22.85 6.04064C22.3159 6.08336 21.8094 6.29589 21.4048 6.64714C20.9312 7.05842 20.629 7.63224 20.5577 8.2554C20.4865 8.87857 20.6513 9.50581 21.0198 10.0134C21.3879 10.5211 21.9329 10.8724 22.5473 10.998C23.1617 11.1237 23.8009 11.0145 24.3388 10.6921H24.3393L24.3783 10.7311C24.5555 10.6296 24.7203 10.508 24.8695 10.3686C25.33 9.88163 25.5833 9.23482 25.576 8.56464C25.5687 7.89445 25.3015 7.25329 24.8305 6.77639V6.77589L22.6195 8.97314L22.5805 8.93439L24.7915 6.73614C24.5356 6.48941 24.2302 6.29987 23.8955 6.18005C23.5608 6.06024 23.2044 6.01289 22.85 6.04114V6.04064ZM19.939 9.63739C18.879 9.63564 17.1483 10.8371 12.9223 15.0631L12.9433 15.0846C12.9203 15.0766 12.897 15.0759 12.897 15.0759L11.306 16.6529C11.2652 16.6918 11.2381 16.7429 11.229 16.7985C11.2199 16.8542 11.2292 16.9113 11.2555 16.9612C11.2819 17.011 11.3237 17.0509 11.3748 17.0748C11.4259 17.0987 11.4834 17.1052 11.5385 17.0934L14.267 16.5114C14.2792 16.5002 14.2873 16.4852 14.29 16.4689L14.3505 16.5314L13.4205 17.4539H13.3755L7.85404 23.0189L9.62554 24.7249C9.67501 24.7697 9.73752 24.7975 9.80392 24.8042C9.87031 24.8109 9.93712 24.7962 9.99454 24.7621C10.0524 24.7285 10.0988 24.6781 10.1276 24.6176C10.1564 24.5571 10.1662 24.4893 10.1558 24.4231L9.89704 23.2981C9.88077 23.2756 9.87201 23.2485 9.87201 23.2206C9.87201 23.1928 9.88077 23.1657 9.89704 23.1431C12.3156 21.9901 14.5646 20.5111 16.5815 18.7474L15.4478 17.6131L15.4693 17.6096L14.7968 16.9374L14.8398 16.8939L14.8853 16.9404L14.8618 16.9631L16.646 18.7864V18.7856C20.066 15.5471 22.4935 12.9439 21.8623 11.1919C21.8335 10.9824 21.7362 10.7883 21.5855 10.6399V10.6409C21.5472 10.6125 21.5068 10.587 21.4648 10.5644C21.444 10.5424 21.4258 10.5199 21.4038 10.4984L21.3873 10.5149C21.3408 10.4868 21.2922 10.4626 21.2418 10.4424L21.314 10.3694C20.865 9.96939 20.494 9.63839 19.939 9.63689V9.63739ZM7.81554 23.0521L6.52279 24.3451V24.3461C6.4764 24.3749 6.44035 24.4176 6.41981 24.4681C6.39928 24.5187 6.39533 24.5745 6.40854 24.6274C6.42129 24.6803 6.45041 24.7279 6.49175 24.7633C6.53309 24.7987 6.58454 24.8202 6.63879 24.8246L9.80679 25.0434L7.81554 23.0521Z" fill="white"/>
<path d="M23.068 5.82813C22.3424 5.82731 21.6457 6.11197 21.1283 6.62063C20.7602 6.99741 20.5082 7.47205 20.4022 7.98803C20.2963 8.504 20.3409 9.03955 20.5308 9.53088C19.3455 9.02338 17.742 9.90838 12.7543 14.8951C12.7508 14.9028 12.7477 14.9106 12.745 14.9186C12.7348 14.9231 12.7248 14.9283 12.7153 14.9341L11.138 16.5251C11.0624 16.5993 11.0127 16.6959 10.9964 16.8006C10.9801 16.9053 10.9979 17.0124 11.0473 17.1061C11.0913 17.1803 11.1537 17.2419 11.2284 17.285C11.3032 17.3281 11.3877 17.3512 11.474 17.3521L11.5523 17.3014L13.6583 16.8521L12.6508 17.8689C12.6451 17.8823 12.6405 17.8962 12.6373 17.9104L7.69976 22.8601C7.68008 22.8767 7.66378 22.8969 7.65176 22.9196L6.38026 24.1921C6.31696 24.2591 6.27371 24.3424 6.25542 24.4327C6.23712 24.523 6.24451 24.6166 6.27676 24.7029C6.31003 24.7885 6.36628 24.8634 6.43931 24.9192C6.51235 24.975 6.59935 25.0096 6.69076 25.0191L9.84525 25.2391C9.89916 25.2204 9.94503 25.1838 9.97526 25.1354C10.0022 25.0976 10.0167 25.0524 10.0167 25.006C10.0167 24.9596 10.0022 24.9144 9.97526 24.8766L9.96876 24.8704C10.037 24.8349 10.097 24.7855 10.145 24.7254C10.1956 24.6596 10.231 24.5834 10.2485 24.5023C10.2661 24.4212 10.2654 24.3372 10.2465 24.2564L10.0005 23.2096C12.3606 22.0818 14.572 20.6659 16.584 18.9944C16.6034 19.0057 16.6243 19.0144 16.646 19.0201C16.7095 19.0154 16.769 18.9881 16.814 18.9431C20.2015 15.7356 22.1928 13.5376 22.1928 11.7926C22.2003 11.5506 22.1638 11.3091 22.085 11.0801C22.3904 11.2065 22.716 11.2768 23.0463 11.2876L23.0425 11.2886C23.4975 11.2749 23.9422 11.1505 24.3383 10.9261L24.3393 10.9264C24.3905 10.9416 24.4457 10.9367 24.4935 10.9126C24.6846 10.8001 24.8589 10.661 25.011 10.4996C25.2688 10.2467 25.4737 9.9449 25.6135 9.61188C25.7534 9.27887 25.8254 8.92132 25.8255 8.56013C25.8255 8.19896 25.7535 7.84141 25.6136 7.5084C25.4738 7.17538 25.2691 6.87358 25.0113 6.62063C25.002 6.61232 24.9921 6.60472 24.9818 6.59788C24.4671 6.10385 23.7812 5.8281 23.0678 5.82838L23.068 5.82813ZM23.0463 6.27113C23.5515 6.27414 24.0419 6.44217 24.4428 6.74963L22.4258 8.77888C22.4189 8.78664 22.4126 8.79482 22.4068 8.80338C22.3704 8.84016 22.3491 8.8892 22.347 8.94088C22.347 8.97211 22.354 9.00294 22.3676 9.03107C22.3811 9.05921 22.4008 9.08392 22.4253 9.10338H22.4258L23.9508 10.6284C23.5333 10.8105 23.0706 10.8624 22.6233 10.777C22.1759 10.6917 21.7648 10.4732 21.4438 10.1501C20.7973 9.50013 20.6098 8.52413 20.9555 7.67738C21.3013 6.82988 22.1255 6.27613 23.0463 6.27113ZM24.8263 7.12913C25.1561 7.52814 25.3359 8.02996 25.3345 8.54763C25.3336 9.15408 25.0919 9.73534 24.6625 10.1636C24.5764 10.2446 24.4847 10.3194 24.388 10.3874L23.1573 9.17563L22.9165 8.93488L22.9828 8.86863L24.826 7.12863L24.8263 7.12913ZM24.7348 8.17738C24.6895 8.16315 24.6406 8.16591 24.5973 8.18513C24.5543 8.20732 24.522 8.24561 24.5073 8.29163C24.5 8.31459 24.4974 8.33877 24.4995 8.36275C24.5017 8.38674 24.5086 8.41006 24.5198 8.43138C24.5641 8.5248 24.5815 8.62871 24.5702 8.73149C24.5588 8.83427 24.5191 8.93187 24.4555 9.01338C24.4392 9.0291 24.4264 9.04811 24.418 9.06914C24.4096 9.09017 24.4058 9.11275 24.4068 9.13538C24.4078 9.18138 24.4243 9.22538 24.4555 9.25838C24.4888 9.27111 24.5257 9.27111 24.559 9.25838C24.5891 9.26588 24.6206 9.26502 24.6502 9.2559C24.6798 9.24678 24.7064 9.22974 24.727 9.20663C24.8335 9.07622 24.9009 8.91836 24.9214 8.75128C24.942 8.5842 24.9149 8.41471 24.8433 8.26238V8.26338C24.8188 8.2224 24.7802 8.19181 24.7348 8.17738ZM19.9155 9.85813C20.2172 9.86842 20.5074 9.97593 20.743 10.1646C20.4893 10.2012 20.2543 10.3187 20.0728 10.4996L14.371 16.1759L13.252 15.0569C16.209 12.1139 18.017 10.5766 19.141 10.0729C19.3726 9.92705 19.6419 9.85255 19.9155 9.85813ZM20.9068 10.5981C21.0982 10.5983 21.2818 10.6741 21.4175 10.8091C21.4895 10.877 21.5464 10.9593 21.5842 11.0507C21.6221 11.1421 21.6402 11.2405 21.6373 11.3394C21.634 11.4379 21.6104 11.5347 21.568 11.6238C21.5257 11.7128 21.4654 11.7922 21.391 11.8569L15.3285 17.1334L14.6743 16.4791L20.396 10.8091C20.5318 10.6742 20.7154 10.5982 20.9068 10.5981ZM21.6553 12.2726C21.2328 13.9481 18.9935 16.2184 16.6585 18.4244L15.7143 17.4811L21.6553 12.2726ZM12.9223 15.3874L12.9908 15.4549L13.869 16.3331L11.4615 16.8481L12.9223 15.3874ZM14.3705 16.8474L14.3715 16.8484L14.6635 17.1471L14.668 17.1681L14.6875 17.1711L14.7495 17.2346L14.9545 17.4446L13.6083 17.6096L14.3705 16.8474ZM15.3373 17.8664L16.2318 18.7604C14.2538 20.4051 12.0833 21.8034 9.76801 22.9244C9.69283 22.9602 9.6324 23.0209 9.59698 23.0963C9.56156 23.1716 9.55335 23.2569 9.57376 23.3376L9.83251 24.4626C9.84204 24.4758 9.84718 24.4917 9.84718 24.508C9.84718 24.5243 9.84204 24.5402 9.83251 24.5534C9.81829 24.5661 9.79986 24.5732 9.78076 24.5732C9.76165 24.5732 9.74323 24.5661 9.72901 24.5534L8.20351 23.0154L12.9055 18.2444L15.3373 17.8664ZM7.85401 23.3514L8.07126 23.5549L9.19426 24.6779L6.69026 24.5159L7.85401 23.3514Z" fill="#F37036"/>
</g>
<defs>
<clipPath id="clip0_25_114">
<rect width="32" height="32" fill="white" transform="translate(0.0805664)"/>
</clipPath>
</defs>
</svg>
