<svg width="33" height="32" viewBox="0 0 33 32" fill="none" xmlns="http://www.w3.org/2000/svg">
<g clip-path="url(#clip0_25_83)">
<path d="M8.56454 15.3652C8.43954 16.9391 9.82223 18.0984 10.7659 18.0984C11.7108 18.0543 15.391 14.953 15.391 14.953C17.1219 12.7639 17.1294 11.7906 17.1294 11.0255C16.985 7.64781 10.8312 12.7924 8.56454 15.3652ZM23.7874 14.0579C24.6227 12.29 23.4989 10.3264 21.0544 12.0511C19.1119 13.2857 16.597 15.8256 15.3935 16.8199C14.8352 17.9474 16.2504 21.0418 18.4929 19.408C21.1435 17.4823 23.0791 15.6714 23.7874 14.0579ZM26.0624 3.36337L26.6007 0H32.54V6.13963L30.3634 6.16563L27.7424 15.0428C27.9055 18.1758 26.3168 18.2267 26.1139 19.6643C25.6038 23.2774 21.5632 26.2338 20.0184 26.2338C18.9881 26.2039 18.2349 25.0231 17.9819 23.9941C20.8869 20.7809 24.7934 18.2559 24.7934 18.2559C25.0374 16.5661 24.5012 16.0281 26.3042 14.5881L28.0247 5.542C26.5554 4.57169 25.8697 4.58675 26.0624 3.36337ZM14.4694 18.3446C15.9758 21.3799 18.1524 21.459 21.5269 17.5947C21.6071 17.9519 21.6949 18.3263 21.5338 19.225C14.669 25.3649 8.20341 31.3406 6.23535 32H0.540039V30.4725C1.46629 29.188 9.06804 22.9181 14.4694 18.3446ZM24.6149 24.2215C24.3059 26.8488 21.9105 29.1477 18.7098 32H8.56579L17.1175 24.7966C18.5938 28.1562 21.2159 27.6696 24.615 24.2215M12.6188 18.2581L0.540039 28.5534V21.874L7.64816 16.0875C8.02841 18.2413 10.3579 20.1379 12.6188 18.2582" fill="black"/>
</g>
<defs>
<clipPath id="clip0_25_83">
<rect width="32" height="32" fill="white" transform="translate(0.540039)"/>
</clipPath>
</defs>
</svg>
