<svg width="54" height="32" viewBox="0 0 54 32" fill="none" xmlns="http://www.w3.org/2000/svg">
<g clip-path="url(#clip0_25_42)">
<path d="M26.5998 0C19.5073 0 15.0742 3.54639 13.3011 10.639C15.9609 7.09257 19.0638 5.7627 22.6102 6.64935C24.6335 7.15512 26.0797 8.62317 27.6806 10.2479C30.2884 12.895 33.3063 15.9584 39.8985 15.9584C46.9911 15.9584 51.4242 12.4121 53.1972 5.31948C50.5375 8.86587 47.4345 10.1957 43.8882 9.30909C41.8649 8.80332 40.4186 7.33527 38.8178 5.71055C36.21 3.06348 33.1921 0 26.5998 0ZM13.3011 15.9584C6.20857 15.9584 1.77553 19.5048 0.00244141 26.5974C2.66218 23.051 5.76514 21.7211 9.31153 22.6078C11.3348 23.1136 12.781 24.5816 14.3819 26.2063C16.9897 28.8534 20.0076 31.9169 26.5998 31.9169C33.6924 31.9169 38.1255 28.3705 39.8985 21.2779C37.2388 24.8243 34.1358 26.1542 30.5895 25.2675C28.5662 24.7618 27.1199 23.2937 25.5191 21.669C22.9113 19.0219 19.8934 15.9584 13.3011 15.9584Z" fill="url(#paint0_linear_25_42)"/>
</g>
<defs>
<linearGradient id="paint0_linear_25_42" x1="-147.773" y1="1021.34" x2="4446.47" y2="3670.3" gradientUnits="userSpaceOnUse">
<stop stop-color="#2298BD"/>
<stop offset="1" stop-color="#0ED7B5"/>
</linearGradient>
<clipPath id="clip0_25_42">
<rect width="53.2" height="32" fill="white"/>
</clipPath>
</defs>
</svg>
