<svg width="37" height="32" viewBox="0 0 37 32" fill="none" xmlns="http://www.w3.org/2000/svg">
<g clip-path="url(#clip0_25_78)">
<path d="M22.7211 19.8242L22.038 21.0106C21.9369 21.1862 21.7912 21.332 21.6158 21.4334C21.4404 21.5348 21.2414 21.5881 21.0388 21.5881H15.8049C15.6023 21.5881 15.4033 21.5348 15.2279 21.4334C15.0525 21.332 14.9068 21.1862 14.8057 21.0106L14.1224 19.8242H22.7211ZM24.6337 16.5032L23.4292 18.5949H13.4145L12.21 16.5032H24.6337ZM23.4734 13.2556L24.6357 15.2738H12.208L13.3703 13.2556H23.4734ZM21.0386 10.1855C21.2413 10.1855 21.4403 10.2389 21.6158 10.3403C21.7912 10.4417 21.9368 10.5875 22.038 10.7631L22.7654 12.0262H14.0783L14.8059 10.7631C14.907 10.5875 15.0526 10.4417 15.228 10.3403C15.4034 10.2389 15.6025 10.1855 15.8051 10.1855H21.0386Z" fill="#00435B"/>
<path d="M8.18838 9.63509C7.60863 6.82382 7.48411 4.66758 7.85892 3.10195C8.08181 2.17075 8.48918 1.41109 9.10887 0.862921C9.76306 0.284278 10.5901 0.000312434 11.5194 0.000312434C13.0524 0.000312434 14.6641 0.699443 16.3862 2.02744C17.0888 2.56922 17.8179 3.22216 18.575 3.98668C18.6354 3.90918 18.7034 3.836 18.7794 3.76824C20.9201 1.86076 22.7224 0.675373 24.2639 0.218469C25.1805 -0.0533919 26.041 -0.0792702 26.8246 0.184521C27.6519 0.462782 28.311 1.03836 28.7761 1.84435C29.5435 3.17457 29.7458 4.92247 29.4598 7.0808C29.3432 7.96052 29.1438 8.91871 28.8621 9.95704C28.9683 9.96984 29.0749 9.99349 29.1804 10.0284C31.8963 10.9286 33.8197 11.8964 34.9841 13.0026C35.6769 13.6607 36.1293 14.3934 36.2929 15.2045C36.4654 16.0606 36.297 16.9191 35.8326 17.7246C35.0666 19.053 33.658 20.1005 31.6515 20.9303C30.8459 21.2635 29.9342 21.5653 28.9156 21.8367C28.9621 21.9416 28.9983 22.053 29.0223 22.1699C29.6021 24.9812 29.7265 27.1374 29.3518 28.7031C29.1289 29.6343 28.7214 30.3939 28.1017 30.9421C27.4477 31.5207 26.6205 31.8047 25.6913 31.8047C24.1582 31.8047 22.5466 31.1056 20.8245 29.7776C20.1144 29.2299 19.3773 28.5689 18.6113 27.7938C18.5307 27.9198 18.4331 28.0342 18.3214 28.1336C16.1807 30.0414 14.3784 31.2265 12.8369 31.6835C11.9203 31.9554 11.0598 31.9812 10.2762 31.7175C9.44891 31.4392 8.78984 30.8636 8.32473 30.0576C7.55729 28.7274 7.35499 26.9795 7.64104 24.8212C7.76195 23.9097 7.97162 22.9138 8.26964 21.832C8.15085 21.8199 8.03374 21.7949 7.92042 21.7573C5.20445 20.8571 3.28111 19.8893 2.11673 18.7831C1.42386 18.125 0.971549 17.3923 0.807932 16.5812C0.63541 15.7251 0.803758 14.8664 1.26818 14.061C2.03423 12.7327 3.44278 11.685 5.44932 10.8554C6.27896 10.5122 7.22101 10.2025 8.27645 9.92476C8.23824 9.83112 8.20876 9.73416 8.18838 9.63509Z" fill="#002B3B"/>
<path d="M27.1271 22.4456C27.2568 22.4226 27.3903 22.4504 27.5 22.5232C27.6096 22.596 27.6871 22.7082 27.7163 22.8366L27.7195 22.8521L27.7483 23.0017C28.6819 27.9097 28.0242 30.3638 25.7755 30.3638C23.5754 30.3638 20.7746 28.2697 17.3731 24.0816C17.3127 24.0072 17.2743 23.9173 17.2624 23.8222C17.2506 23.727 17.2656 23.6305 17.3058 23.5434C17.3461 23.4564 17.4099 23.3824 17.4901 23.3299C17.5703 23.2773 17.6636 23.2483 17.7595 23.2462H17.7753L17.9545 23.2474C19.3859 23.2552 20.7774 23.2052 22.129 23.0977C23.7244 22.9707 25.3905 22.7534 27.1271 22.4456ZM11.6835 18.7355L11.6921 18.7502L11.782 18.907C12.5023 20.1591 13.2526 21.3476 14.0331 22.4724C14.9525 23.797 15.9863 25.1379 17.1344 26.4953C17.2196 26.596 17.2627 26.7257 17.2547 26.8574C17.2467 26.9891 17.1882 27.1127 17.0914 27.2023L17.0784 27.2139L16.963 27.3134C13.1637 30.5686 10.6944 31.2185 9.55509 29.2628C8.43968 27.3488 8.84414 23.8683 10.7682 18.8215C10.8022 18.7321 10.8607 18.654 10.9368 18.5961C11.013 18.5382 11.1038 18.5027 11.1991 18.4938C11.2944 18.4848 11.3902 18.5027 11.4758 18.5455C11.5614 18.5882 11.6334 18.654 11.6835 18.7355ZM29.0549 11.4932L29.0705 11.4984L29.2135 11.5476C33.9029 13.179 35.6845 14.9716 34.5584 16.9257C33.457 18.8368 30.2551 20.2284 24.9527 21.1002C24.8566 21.116 24.7579 21.1041 24.6684 21.0659C24.5788 21.0277 24.5019 20.9647 24.4469 20.8844C24.3918 20.8041 24.3607 20.7098 24.3573 20.6124C24.3539 20.5151 24.3783 20.4188 24.4277 20.3348C25.1871 19.0429 25.8712 17.7576 26.4798 16.4786C27.1698 15.0281 27.8175 13.4711 28.4227 11.808C28.4667 11.6871 28.5545 11.5871 28.6687 11.528C28.7829 11.4688 28.9152 11.4548 29.0393 11.4887L29.0549 11.4932ZM12.4905 10.672C12.5485 10.706 12.5993 10.7512 12.6398 10.8049C12.6804 10.8586 12.71 10.9198 12.7269 10.985C12.7438 11.0501 12.7478 11.1179 12.7385 11.1846C12.7292 11.2513 12.7068 11.3154 12.6727 11.3735C11.9131 12.6653 11.2291 13.9507 10.6206 15.2297C9.93047 16.6802 9.28282 18.237 8.6776 19.9003C8.63266 20.0239 8.542 20.1254 8.42434 20.184C8.30668 20.2425 8.17102 20.2537 8.04539 20.2151L8.02981 20.2099L7.88678 20.1605C3.19739 18.5294 1.41582 16.7365 2.54195 14.7826C3.6433 12.8713 6.84525 11.4799 12.1476 10.6081C12.2659 10.5886 12.3872 10.6112 12.4905 10.672ZM27.5452 2.63746C28.6606 4.55161 28.2562 8.0321 26.3321 13.0789C26.2981 13.1683 26.2397 13.2464 26.1635 13.3043C26.0873 13.3623 25.9965 13.3977 25.9012 13.4067C25.806 13.4156 25.7101 13.3977 25.6245 13.355C25.5389 13.3123 25.4669 13.2464 25.4168 13.1649L25.4082 13.1503L25.3183 12.9935C24.598 11.7413 23.8477 10.5529 23.0672 9.42799C22.1478 8.10347 21.114 6.76253 19.9659 5.40518C19.8807 5.30444 19.8376 5.17473 19.8456 5.04303C19.8536 4.91132 19.9121 4.78778 20.0089 4.69812L20.0219 4.68657L20.1374 4.58709C23.9366 1.33186 26.4059 0.681978 27.5452 2.63746ZM11.5171 1.47266C13.7173 1.47266 16.5182 3.56657 19.9195 7.75467C19.9799 7.82911 20.0182 7.919 20.0301 8.01414C20.042 8.10928 20.027 8.20584 19.9868 8.29287C19.9465 8.37989 19.8827 8.45388 19.8025 8.50643C19.7223 8.55898 19.629 8.58799 19.5331 8.59015H19.5172L19.338 8.58904C17.9068 8.58125 16.5152 8.63119 15.1637 8.73874C13.5682 8.86577 11.9021 9.08309 10.1655 9.39085C10.0359 9.41378 9.90239 9.38597 9.79272 9.31319C9.68306 9.24041 9.60559 9.12823 9.57638 8.99989L9.57304 8.98417L9.54424 8.83474C8.61068 3.92664 9.26821 1.47266 11.5171 1.47266Z" fill="#FF4154"/>
<path d="M16.226 10.25H20.6191C20.9348 10.25 21.2448 10.3333 21.518 10.4915C21.7911 10.6496 22.0177 10.8771 22.1748 11.1509L24.3807 14.9945C24.5366 15.2662 24.6187 15.574 24.6187 15.8873C24.6187 16.2006 24.5366 16.5084 24.3807 16.7801L22.1748 20.6237C22.0177 20.8975 21.7911 21.1249 21.518 21.2831C21.2448 21.4413 20.9348 21.5246 20.6191 21.5246H16.226C15.5835 21.5246 14.9901 21.1809 14.6702 20.6237L12.4646 16.7801C12.3086 16.5084 12.2266 16.2006 12.2266 15.8873C12.2266 15.574 12.3086 15.2662 12.4646 14.9945L14.6703 11.1509C14.8275 10.8771 15.054 10.6496 15.3272 10.4915C15.6004 10.3333 15.9103 10.25 16.226 10.25ZM19.9496 11.4101C20.5924 11.4101 21.1862 11.7541 21.5058 12.3118L23.044 14.9953C23.1997 15.2668 23.2815 15.5743 23.2815 15.8873C23.2815 16.2002 23.1997 16.5077 23.044 16.7793L21.5058 19.4628C21.3488 19.7368 21.1221 19.9644 20.8489 20.1227C20.5756 20.281 20.2654 20.3644 19.9496 20.3644H16.8957C16.2529 20.3644 15.6591 20.0204 15.3396 19.4628L13.8013 16.7793C13.6457 16.5077 13.5638 16.2002 13.5638 15.8873C13.5638 15.5743 13.6457 15.2668 13.8013 14.9953L15.3396 12.3118C15.4966 12.0378 15.7232 11.8102 15.9964 11.6519C16.2696 11.4936 16.5798 11.4102 16.8956 11.4102L19.9496 11.4101ZM19.228 12.6789H17.6174C17.3019 12.6789 16.9919 12.7621 16.7189 12.9202C16.4458 13.0782 16.2192 13.3055 16.0621 13.5791L15.2493 14.9937C15.093 15.2656 15.0108 15.5737 15.0108 15.8873C15.0108 16.2009 15.093 16.509 15.2493 16.7809L16.0621 18.1956C16.2192 18.4692 16.4458 18.6965 16.7189 18.8545C16.9919 19.0126 17.3019 19.0958 17.6174 19.0958H19.228C19.8702 19.0958 20.4635 18.7524 20.7833 18.1956L21.5961 16.7809C21.7524 16.509 21.8346 16.2009 21.8346 15.8873C21.8346 15.5737 21.7524 15.2656 21.5961 14.9937L20.7833 13.579C20.6261 13.3054 20.3996 13.0781 20.1265 12.9201C19.8534 12.762 19.5435 12.6789 19.228 12.6789ZM18.5332 13.8933C19.1748 13.8933 19.7677 14.2361 20.0877 14.7921L20.203 14.9924C20.3597 15.2646 20.4421 15.5731 20.4421 15.8871C20.4421 16.2012 20.3597 16.5097 20.203 16.7819L20.0877 16.9822C19.9304 17.2554 19.7039 17.4824 19.431 17.6402C19.1581 17.798 18.8484 17.881 18.5332 17.881H18.3122C17.997 17.881 17.6873 17.798 17.4144 17.6402C17.1415 17.4824 16.915 17.2554 16.7577 16.9822L16.6424 16.7819C16.4857 16.5097 16.4033 16.2012 16.4033 15.8871C16.4033 15.5731 16.4857 15.2646 16.6424 14.9924L16.7577 14.7921C16.915 14.5189 17.1415 14.2919 17.4144 14.1341C17.6873 13.9763 17.997 13.8933 18.3122 13.8933H18.5332ZM18.423 15.0897C18.2829 15.0896 18.1452 15.1264 18.0238 15.1964C17.9024 15.2664 17.8016 15.3671 17.7315 15.4884C17.6615 15.6096 17.6246 15.7471 17.6246 15.8871C17.6246 16.0271 17.6615 16.1647 17.7315 16.2859C17.8016 16.4072 17.9023 16.5079 18.0237 16.578C18.145 16.648 18.2827 16.6849 18.4228 16.6849C18.5629 16.6849 18.7005 16.648 18.8218 16.578C18.9432 16.5079 19.0439 16.4072 19.114 16.2859C19.1841 16.1647 19.2209 16.0271 19.2209 15.8871C19.2209 15.7471 19.1841 15.6096 19.114 15.4884C19.044 15.3671 18.9432 15.2665 18.8219 15.1965C18.7006 15.1265 18.563 15.0896 18.423 15.0897ZM11.9521 15.8871H13.388Z" fill="#FFD94C"/>
</g>
<defs>
<clipPath id="clip0_25_78">
<rect width="35.62" height="32" fill="white" transform="translate(0.740234)"/>
</clipPath>
</defs>
</svg>
