<svg width="33" height="32" viewBox="0 0 33 32" fill="none" xmlns="http://www.w3.org/2000/svg">
<g clip-path="url(#clip0_25_85)">
<mask id="mask0_25_85" style="mask-type:alpha" maskUnits="userSpaceOnUse" x="0" y="0" width="33" height="32">
<path fill-rule="evenodd" clip-rule="evenodd" d="M23.2319 31.7806C23.4865 31.8798 23.7589 31.9256 24.032 31.9151C24.3051 31.9046 24.5731 31.8381 24.8194 31.7196L31.4076 28.5493C31.7469 28.386 32.0332 28.1302 32.2335 27.8114C32.4339 27.4925 32.5402 27.1236 32.5401 26.7471V5.25131C32.5402 4.87471 32.434 4.50575 32.2336 4.18687C32.0333 3.86799 31.747 3.61216 31.4076 3.44881L24.8194 0.279059C24.4471 0.0999355 24.0283 0.0409596 23.6211 0.110293C23.2138 0.179627 22.8382 0.373842 22.5461 0.666059L9.93363 12.1726L4.44013 8.00231C4.19228 7.81424 3.88643 7.71884 3.57561 7.73263C3.2648 7.74642 2.9686 7.86853 2.73838 8.07781L0.976379 9.68056C0.839066 9.80545 0.729332 9.95762 0.654197 10.1273C0.579062 10.2971 0.540181 10.4806 0.540039 10.6662C0.539898 10.8518 0.578501 11.0354 0.653377 11.2053C0.728254 11.3751 0.837756 11.5275 0.974879 11.6526L5.73913 15.9991L0.975129 20.3458C0.838081 20.4709 0.728644 20.6233 0.653814 20.7931C0.578984 20.9629 0.540407 21.1464 0.540548 21.332C0.540689 21.5176 0.579546 21.7011 0.654634 21.8708C0.729722 22.0405 0.83939 22.1927 0.976629 22.3176L2.73863 23.9203C2.96882 24.1296 3.265 24.2518 3.57582 24.2656C3.88664 24.2795 4.1925 24.1841 4.44038 23.9961L9.93388 19.8261L22.5464 31.3323C22.7416 31.5274 22.9748 31.6801 23.2319 31.7806ZM24.5449 8.73481L14.9751 15.9991L24.5451 23.2636L24.5449 8.73481Z" fill="white"/>
</mask>
<g mask="url(#mask0_25_85)">
<path d="M31.4077 3.45438L24.8142 0.279384C24.4418 0.100031 24.0229 0.0409303 23.6154 0.110269C23.2079 0.179608 22.8321 0.373954 22.54 0.666384L0.955453 20.3461C0.818302 20.4712 0.708773 20.6235 0.633877 20.7933C0.55898 20.9631 0.520367 21.1467 0.520508 21.3323C0.520649 21.5179 0.559542 21.7015 0.634697 21.8712C0.709851 22.0409 0.819612 22.193 0.956953 22.3179L2.71995 23.9206C2.95021 24.1302 3.24659 24.2525 3.55763 24.2664C3.86867 24.2802 4.17474 24.1847 4.4227 23.9964L30.4155 4.27763C31.2875 3.61613 32.54 4.23813 32.54 5.33263V5.25613C32.54 4.87965 32.4337 4.51081 32.2334 4.19203C32.0331 3.87325 31.7469 3.61773 31.4077 3.45438Z" fill="#0065A9"/>
<g filter="url(#filter0_d_25_85)">
<path d="M31.4077 28.544L24.8142 31.7185C24.4419 31.8979 24.0229 31.9571 23.6155 31.8879C23.208 31.8186 22.8321 31.6244 22.54 31.332L0.955453 11.652C0.818302 11.527 0.708773 11.3746 0.633877 11.2048C0.55898 11.035 0.520367 10.8514 0.520508 10.6658C0.520649 10.4802 0.559542 10.2967 0.634697 10.127C0.709851 9.95725 0.819612 9.80511 0.956953 9.68026L2.71995 8.07751C2.95021 7.86794 3.24659 7.74562 3.55763 7.73179C3.86867 7.71795 4.17474 7.81347 4.4227 8.00176L30.4155 27.7203C31.2875 28.382 32.54 27.76 32.54 26.6655V26.742C32.54 27.1185 32.4337 27.4873 32.2334 27.8061C32.0331 28.1249 31.7469 28.3807 31.4077 28.544Z" fill="#007ACC"/>
</g>
<g filter="url(#filter1_d_25_85)">
<path d="M24.8145 31.7199C24.442 31.8989 24.0231 31.9578 23.6156 31.8884C23.2082 31.819 22.8323 31.6248 22.54 31.3326C23.278 32.0706 24.54 31.5479 24.54 30.5041V1.49436C24.54 0.450612 23.278 -0.0721376 22.54 0.666112C22.8323 0.373909 23.2082 0.179705 23.6156 0.110334C24.0231 0.0409637 24.442 0.0998523 24.8145 0.278862L31.4068 3.44936C31.7463 3.6126 32.0327 3.86839 32.2332 4.18728C32.4337 4.50617 32.5401 4.87519 32.54 5.25186V26.7474C32.5401 27.124 32.4337 27.4931 32.2332 27.8119C32.0327 28.1308 31.7463 28.3866 31.4068 28.5499L24.8145 31.7199Z" fill="#1F9CF0"/>
</g>
<path opacity="0.25" fill-rule="evenodd" clip-rule="evenodd" d="M23.2125 31.7806C23.4671 31.8798 23.7394 31.9256 24.0124 31.9151C24.2855 31.9046 24.5535 31.838 24.7997 31.7196L31.388 28.5493C31.7273 28.386 32.0136 28.1301 32.214 27.8112C32.4143 27.4924 32.5206 27.1234 32.5205 26.7468V5.25131C32.5206 4.87471 32.4143 4.50575 32.214 4.18687C32.0136 3.86799 31.7273 3.61216 31.388 3.44881L24.7997 0.279059C24.4274 0.0999355 24.0087 0.0409596 23.6014 0.110293C23.1942 0.179627 22.8185 0.373842 22.5265 0.666059L9.91398 12.1726L4.42048 8.00256C4.17263 7.81449 3.86678 7.71909 3.55596 7.73288C3.24514 7.74667 2.94895 7.86878 2.71873 8.07806L0.956726 9.68081C0.819448 9.80572 0.709745 9.9579 0.634632 10.1276C0.559519 10.2973 0.520649 10.4809 0.520508 10.6665C0.520367 10.8521 0.558957 11.0357 0.633812 11.2055C0.708666 11.3753 0.818138 11.5277 0.955226 11.6528L5.71948 15.9991L0.955476 20.3456C0.818353 20.4707 0.708851 20.623 0.633975 20.7928C0.559098 20.9627 0.520496 21.1463 0.520637 21.3319C0.520778 21.5175 0.55966 21.701 0.634795 21.8708C0.70993 22.0405 0.819663 22.1927 0.956976 22.3176L2.71898 23.9203C2.94917 24.1296 3.24535 24.2518 3.55617 24.2656C3.86699 24.2795 4.17285 24.1841 4.42073 23.9961L9.91448 19.8258L22.527 31.3323C22.7221 31.5274 22.9555 31.68 23.2125 31.7806ZM24.5255 8.73456L14.9555 15.9991L24.5255 23.2633V8.73456Z" fill="url(#paint0_linear_25_85)"/>
</g>
</g>
<defs>
<filter id="filter0_d_25_85" x="-1.56299" y="5.64697" width="36.1865" height="28.3525" filterUnits="userSpaceOnUse" color-interpolation-filters="sRGB">
<feFlood flood-opacity="0" result="BackgroundImageFix"/>
<feColorMatrix in="SourceAlpha" type="matrix" values="0 0 0 0 0 0 0 0 0 0 0 0 0 0 0 0 0 0 127 0" result="hardAlpha"/>
<feOffset/>
<feGaussianBlur stdDeviation="1.04175"/>
<feColorMatrix type="matrix" values="0 0 0 0 0 0 0 0 0 0 0 0 0 0 0 0 0 0 0.25 0"/>
<feBlend mode="overlay" in2="BackgroundImageFix" result="effect1_dropShadow_25_85"/>
<feBlend mode="normal" in="SourceGraphic" in2="effect1_dropShadow_25_85" result="shape"/>
</filter>
<filter id="filter1_d_25_85" x="20.4565" y="-2.00147" width="14.167" height="36.001" filterUnits="userSpaceOnUse" color-interpolation-filters="sRGB">
<feFlood flood-opacity="0" result="BackgroundImageFix"/>
<feColorMatrix in="SourceAlpha" type="matrix" values="0 0 0 0 0 0 0 0 0 0 0 0 0 0 0 0 0 0 127 0" result="hardAlpha"/>
<feOffset/>
<feGaussianBlur stdDeviation="1.04175"/>
<feColorMatrix type="matrix" values="0 0 0 0 0 0 0 0 0 0 0 0 0 0 0 0 0 0 0.25 0"/>
<feBlend mode="overlay" in2="BackgroundImageFix" result="effect1_dropShadow_25_85"/>
<feBlend mode="normal" in="SourceGraphic" in2="effect1_dropShadow_25_85" result="shape"/>
</filter>
<linearGradient id="paint0_linear_25_85" x1="16.5205" y1="0.081559" x2="16.5205" y2="31.9166" gradientUnits="userSpaceOnUse">
<stop stop-color="white"/>
<stop offset="1" stop-color="white" stop-opacity="0"/>
</linearGradient>
<clipPath id="clip0_25_85">
<rect width="32" height="32" fill="white" transform="translate(0.540039)"/>
</clipPath>
</defs>
</svg>
