<svg width="33" height="32" viewBox="0 0 33 32" fill="none" xmlns="http://www.w3.org/2000/svg">
<path d="M16.5399 2.66602C14.7889 2.66602 13.0551 3.01089 11.4374 3.68096C9.81976 4.35102 8.3499 5.33314 7.11179 6.57126C4.6113 9.07174 3.20654 12.4631 3.20654 15.9993C3.20654 21.8927 7.03321 26.8927 12.3265 28.666C12.9932 28.7727 13.2065 28.3593 13.2065 27.9993V25.746C9.51321 26.546 8.72654 23.9593 8.72654 23.9593C8.11321 22.4127 7.24654 21.9993 7.24654 21.9993C6.03321 21.1727 7.33988 21.1993 7.33988 21.1993C8.67321 21.2927 9.37988 22.5727 9.37988 22.5727C10.5399 24.5993 12.4999 23.9993 13.2599 23.6793C13.3799 22.8127 13.7265 22.226 14.0999 21.8927C11.1399 21.5593 8.03321 20.4127 8.03321 15.3327C8.03321 13.8527 8.53988 12.666 9.40654 11.7193C9.27321 11.386 8.80654 9.99935 9.53988 8.19935C9.53988 8.19935 10.6599 7.83935 13.2065 9.55935C14.2599 9.26602 15.4065 9.11935 16.5399 9.11935C17.6732 9.11935 18.8199 9.26602 19.8732 9.55935C22.4199 7.83935 23.5399 8.19935 23.5399 8.19935C24.2732 9.99935 23.8065 11.386 23.6732 11.7193C24.5399 12.666 25.0465 13.8527 25.0465 15.3327C25.0465 20.426 21.9265 21.546 18.9532 21.8793C19.4332 22.2927 19.8732 23.106 19.8732 24.346V27.9993C19.8732 28.3593 20.0865 28.786 20.7665 28.666C26.0599 26.8793 29.8732 21.8927 29.8732 15.9993C29.8732 14.2484 29.5283 12.5146 28.8583 10.8969C28.1882 9.27923 27.2061 7.80937 25.968 6.57126C24.7299 5.33314 23.26 4.35102 21.6423 3.68096C20.0246 3.01089 18.2908 2.66602 16.5399 2.66602Z" fill="black"/>
</svg>
