<svg width="32" height="32" viewBox="0 0 32 32" fill="none" xmlns="http://www.w3.org/2000/svg">
<g clip-path="url(#clip0_42_64)">
<path d="M31.5981 14.6637C31.3931 14.4431 29.9219 12.6456 29.1288 11.6769C28.7069 11.1619 28.3738 10.755 28.2338 10.5863L28.2225 10.5725L28.21 10.5594C27.8838 10.195 27.42 9.7775 26.7238 9.7775C26.6105 9.779 26.4976 9.78819 26.3856 9.805C26.3625 9.80813 26.3388 9.81187 26.3138 9.81437C26.1606 9.83125 25.685 9.90812 24.555 10.0944C23.68 10.2375 22.3606 10.455 22.1606 10.4738L22.1162 10.4775L22.0731 10.4856C21.4481 10.5969 21.0344 10.8744 20.8506 11.31C20.7537 11.54 20.6494 12.0069 21.0344 12.5513C21.13 12.69 21.4613 13.1488 22.0306 13.9369C22.4094 14.4619 22.835 15.0506 23.2025 15.5619L16.2437 17.1875L9.41625 6.00313L9.40375 5.98187L9.38937 5.96125L9.36187 5.92063C9.0825 5.51063 8.735 5 7.73125 5C7.66062 5 7.58687 5 7.50437 5.00688C7.21687 5.0225 6.16562 5.105 4.94875 5.20125C3.60562 5.30688 1.7675 5.45125 1.52875 5.4575H1.48312L1.43375 5.4625C0.862498 5.51813 0.448123 5.75 0.202498 6.15C-0.206877 6.81813 0.113748 7.56812 0.218748 7.81437C0.429373 8.3125 2.3475 12.3562 4.03937 15.9256C5.16437 18.2969 6.32562 20.7487 6.42062 20.9662C6.58768 21.3725 6.87369 21.7188 7.2411 21.9596C7.60852 22.2005 8.04016 22.3246 8.47937 22.3156C8.68665 22.3147 8.89324 22.2917 9.09562 22.2469H9.10875L9.12125 22.2437C9.9875 22.0325 12.7356 21.335 14.6962 20.8319C14.815 21.0394 14.94 21.2588 15.0712 21.4844C16.4419 23.8906 17.44 25.6312 17.7687 26.0756C17.9375 26.3125 18.4375 27 19.3788 27C19.72 27 20.0325 26.9125 20.3625 26.8194L20.4581 26.7925H20.4656C21.1238 26.605 29.8838 23.5325 30.3325 23.3331L30.3463 23.3269C30.6863 23.1763 31.2 22.9487 31.3575 22.3644C31.4606 21.9819 31.3688 21.5937 31.0838 21.2106L31.0794 21.205L31.075 21.1994C31.0219 21.1306 30.825 20.8738 30.5581 20.5181C29.9875 19.7638 29.0656 18.545 28.2556 17.4844C29.3413 17.2031 30.6806 16.8525 30.9669 16.7625C31.6838 16.5481 31.9006 16.0944 31.9669 15.8419C32.0163 15.645 32.0806 15.1419 31.5981 14.6637ZM11.5981 18.3006C10.485 18.5612 9.70937 18.7431 9.23 18.8569C8.81312 18.0231 7.99625 16.3788 7.19875 14.7738C5.34 11.0288 4.38 9.10062 3.875 8.0925L4.38437 8.04875C5.21812 7.97687 6.36 7.87875 6.99562 7.82562C8.04312 9.59187 11.6406 15.6569 13.0144 17.9694L11.5981 18.3006ZM22.7331 22.4656C21.22 22.9656 20.4 23.2388 19.9569 23.3869C19.5631 22.7406 18.6969 21.2919 17.9275 20L25.1588 18.1575C25.4713 18.5831 26.0694 19.39 27.25 20.9656C26.1206 21.3431 24.2375 21.9669 22.7331 22.4656ZM26.225 14.8638L24.74 12.8931C25.5944 12.7437 26.0863 12.6575 26.3744 12.6056L27.1244 13.5356L27.8706 14.4619C27.3581 14.5862 26.7619 14.7319 26.225 14.8638Z" fill="#F24E1E"/>
</g>
<defs>
<clipPath id="clip0_42_64">
<rect width="32" height="32" fill="white"/>
</clipPath>
</defs>
</svg>
