<svg width="33" height="32" viewBox="0 0 33 32" fill="none" xmlns="http://www.w3.org/2000/svg">
<g clip-path="url(#clip0_25_118)">
<path d="M16.5399 31.1873C24.9271 31.1873 31.7264 24.3882 31.7264 16.001C31.7264 7.6137 24.9271 0.814453 16.5399 0.814453C8.15264 0.814453 1.35352 7.6137 1.35352 16.001C1.35352 24.3882 8.15264 31.1873 16.5399 31.1873Z" fill="white"/>
<path d="M16.54 0C7.70354 0 0.540039 7.1635 0.540039 16C0.540039 24.8366 7.70354 32 16.54 32C25.3767 32 32.54 24.8366 32.54 16C32.54 7.1635 25.3767 0 16.54 0ZM16.54 1.62713C24.4779 1.62713 30.9129 8.06213 30.9129 16C30.9129 23.9379 24.4779 30.3729 16.54 30.3729C8.60216 30.3729 2.16716 23.9379 2.16716 16C2.16716 8.06213 8.60216 1.62713 16.54 1.62713Z" fill="#4000BF"/>
<path d="M16.7209 4.60938C23.0114 4.60938 28.1108 9.70888 28.1108 15.9993C28.1108 22.2896 23.0114 27.389 16.7208 27.389C10.4304 27.389 5.33105 22.2896 5.33105 15.9993C5.33105 14.462 5.63568 12.9957 6.1878 11.6576C6.99393 12.7555 8.29405 13.4681 9.76043 13.4681C12.2067 13.4681 14.1898 11.485 14.1898 9.03875C14.1898 7.57225 13.4772 6.27225 12.3793 5.46613C13.7174 4.914 15.1836 4.60938 16.7209 4.60938Z" fill="url(#paint0_linear_25_118)"/>
</g>
<defs>
<linearGradient id="paint0_linear_25_118" x1="1144.32" y1="2282.57" x2="1144.32" y2="4.60938" gradientUnits="userSpaceOnUse">
<stop stop-color="#7400E1"/>
<stop offset="1" stop-color="#4000BF"/>
</linearGradient>
<clipPath id="clip0_25_118">
<rect width="32" height="32" fill="white" transform="translate(0.540039)"/>
</clipPath>
</defs>
</svg>
