<svg width="22" height="32" viewBox="0 0 22 32" fill="none" xmlns="http://www.w3.org/2000/svg">
<g clip-path="url(#clip0_25_10)">
<path d="M5.33577 32.0007C8.27977 32.0007 10.6691 29.6113 10.6691 26.6673V21.334H5.33577C2.39177 21.334 0.00244141 23.7233 0.00244141 26.6673C0.00244141 29.6113 2.39177 32.0007 5.33577 32.0007Z" fill="#0ACF83"/>
<path d="M0.00244141 15.9993C0.00244141 13.0553 2.39177 10.666 5.33577 10.666H10.6691V21.3327H5.33577C2.39177 21.3327 0.00244141 18.9433 0.00244141 15.9993Z" fill="#A259FF"/>
<path d="M0.00244141 5.33333C0.00244141 2.38933 2.39177 0 5.33577 0H10.6691V10.6667H5.33577C2.39177 10.6667 0.00244141 8.27733 0.00244141 5.33333Z" fill="#F24E1E"/>
<path d="M10.6689 0H16.0023C18.9463 0 21.3356 2.38933 21.3356 5.33333C21.3356 8.27733 18.9463 10.6667 16.0023 10.6667H10.6689V0Z" fill="#FF7262"/>
<path d="M21.3356 15.9993C21.3356 18.9433 18.9463 21.3327 16.0023 21.3327C13.0583 21.3327 10.6689 18.9433 10.6689 15.9993C10.6689 13.0553 13.0583 10.666 16.0023 10.666C18.9463 10.666 21.3356 13.0553 21.3356 15.9993Z" fill="#1ABCFE"/>
</g>
<defs>
<clipPath id="clip0_25_10">
<rect width="21.34" height="32" fill="white" transform="translate(-0.000976562)"/>
</clipPath>
</defs>
</svg>
