<svg width="33" height="32" viewBox="0 0 33 32" fill="none" xmlns="http://www.w3.org/2000/svg">
<g clip-path="url(#clip0_25_110)">
<path d="M29.415 0H3.66504C1.93915 0 0.540039 1.39911 0.540039 3.125V28.875C0.540039 30.6009 1.93915 32 3.66504 32H29.415C31.1409 32 32.54 30.6009 32.54 28.875V3.125C32.54 1.39911 31.1409 0 29.415 0Z" fill="url(#paint0_linear_25_110)"/>
<path d="M26.8801 4.16016H20.1201C19.2917 4.16016 18.6201 4.83173 18.6201 5.66016V16.6602C18.6201 17.4886 19.2917 18.1602 20.1201 18.1602H26.8801C27.7085 18.1602 28.3801 17.4886 28.3801 16.6602V5.66016C28.3801 4.83173 27.7085 4.16016 26.8801 4.16016Z" fill="white"/>
<path d="M12.9602 4.16016H6.2002C5.37177 4.16016 4.7002 4.83173 4.7002 5.66016V24.6602C4.7002 25.4886 5.37177 26.1602 6.2002 26.1602H12.9602C13.7886 26.1602 14.4602 25.4886 14.4602 24.6602V5.66016C14.4602 4.83173 13.7886 4.16016 12.9602 4.16016Z" fill="white"/>
</g>
<defs>
<linearGradient id="paint0_linear_25_110" x1="1600.54" y1="0" x2="1600.54" y2="3200" gradientUnits="userSpaceOnUse">
<stop stop-color="#0091E6"/>
<stop offset="1" stop-color="#0079BF"/>
</linearGradient>
<clipPath id="clip0_25_110">
<rect width="32" height="32" fill="white" transform="translate(0.540039)"/>
</clipPath>
</defs>
</svg>
