<svg width="32" height="32" viewBox="0 0 32 32" fill="none" xmlns="http://www.w3.org/2000/svg">
<path d="M30 6.5H2C1.60218 6.5 1.22064 6.65804 0.93934 6.93934C0.658035 7.22064 0.5 7.60218 0.5 8V24C0.5 24.3978 0.658035 24.7794 0.93934 25.0607C1.22064 25.342 1.60218 25.5 2 25.5H30C30.3978 25.5 30.7794 25.342 31.0607 25.0607C31.342 24.7794 31.5 24.3978 31.5 24V8C31.5 7.60218 31.342 7.22064 31.0607 6.93934C30.7794 6.65804 30.3978 6.5 30 6.5ZM22.6513 22.5H9.34875C9.05195 21.0603 8.33983 19.7391 7.30038 18.6996C6.26094 17.6602 4.93972 16.948 3.5 16.6513V15.3488C4.93972 15.052 6.26094 14.3398 7.30038 13.3004C8.33983 12.2609 9.05195 10.9397 9.34875 9.5H22.6513C22.948 10.9397 23.6602 12.2609 24.6996 13.3004C25.7391 14.3398 27.0603 15.052 28.5 15.3488V16.6513C27.0603 16.948 25.7391 17.6602 24.6996 18.6996C23.6602 19.7391 22.948 21.0603 22.6513 22.5ZM28.5 12.2425C27.8683 12.017 27.2946 11.654 26.8203 11.1797C26.346 10.7054 25.983 10.1317 25.7575 9.5H28.5V12.2425ZM6.2425 9.5C6.01699 10.1317 5.65398 10.7054 5.17969 11.1797C4.70541 11.654 4.13169 12.017 3.5 12.2425V9.5H6.2425ZM3.5 19.7575C4.13169 19.983 4.70541 20.346 5.17969 20.8203C5.65398 21.2946 6.01699 21.8683 6.2425 22.5H3.5V19.7575ZM25.7575 22.5C25.983 21.8683 26.346 21.2946 26.8203 20.8203C27.2946 20.346 27.8683 19.983 28.5 19.7575V22.5H25.7575ZM16 11C15.0111 11 14.0444 11.2932 13.2221 11.8427C12.3999 12.3921 11.759 13.173 11.3806 14.0866C11.0022 15.0002 10.9031 16.0055 11.0961 16.9755C11.289 17.9454 11.7652 18.8363 12.4645 19.5355C13.1637 20.2348 14.0546 20.711 15.0245 20.9039C15.9945 21.0969 16.9998 20.9978 17.9134 20.6194C18.827 20.241 19.6079 19.6001 20.1573 18.7779C20.7068 17.9556 21 16.9889 21 16C21 14.6739 20.4732 13.4021 19.5355 12.4645C18.5979 11.5268 17.3261 11 16 11ZM16 18C15.6044 18 15.2178 17.8827 14.8889 17.6629C14.56 17.4432 14.3036 17.1308 14.1522 16.7654C14.0009 16.3999 13.9613 15.9978 14.0384 15.6098C14.1156 15.2219 14.3061 14.8655 14.5858 14.5858C14.8655 14.3061 15.2219 14.1156 15.6098 14.0384C15.9978 13.9613 16.3999 14.0009 16.7654 14.1522C17.1308 14.3036 17.4432 14.56 17.6629 14.8889C17.8827 15.2178 18 15.6044 18 16C18 16.5304 17.7893 17.0391 17.4142 17.4142C17.0391 17.7893 16.5304 18 16 18Z" fill="#0FA958"/>
</svg>
