<svg width="32" height="32" viewBox="0 0 32 32" fill="none" xmlns="http://www.w3.org/2000/svg">
<path d="M15.9998 2.66602C8.63584 2.66602 2.6665 8.63535 2.6665 15.9993C2.6665 23.3633 8.63584 29.3327 15.9998 29.3327C23.3638 29.3327 29.3332 23.3633 29.3332 15.9993C29.3332 8.63535 23.3638 2.66602 15.9998 2.66602ZM10.9918 5.83002L15.0025 8.23002V11.154L11.2812 13.858L8.55584 12.9153L7.77317 8.20335C8.6969 7.22771 9.78675 6.42409 10.9918 5.83002ZM4.82784 17.918L7.9305 14.8153L10.6505 15.7553L12.0932 20.1993L10.7998 22.2994L6.40917 22.0407C5.61687 20.7834 5.07956 19.3826 4.82784 17.918ZM14.0398 27.1633L12.4612 23.418L13.7452 21.3287H18.2412L19.4572 23.4367L18.0705 27.1433C16.7387 27.388 15.374 27.3947 14.0398 27.1633ZM25.1892 22.634L21.1572 22.3807L19.9065 20.2153L21.3558 15.7553L24.0398 14.8273L27.1225 18.1873C26.8064 19.7917 26.1469 21.3086 25.1892 22.634ZM24.2292 8.20735L23.4438 12.918L20.7238 13.858L17.0025 11.154V8.22868L21.0052 5.82868C22.2126 6.42382 23.3043 7.22929 24.2292 8.20735Z" fill="#002B3B"/>
</svg>
