<svg width="32" height="32" viewBox="0 0 32 32" fill="none" xmlns="http://www.w3.org/2000/svg">
<path d="M5.33317 5.33398L7.99984 10.6673H11.9998L9.33317 5.33398H11.9998L14.6665 10.6673H18.6665L15.9998 5.33398H18.6665L21.3332 10.6673H25.3332L22.6665 5.33398H26.6665C27.3998 5.33398 28.0278 5.59532 28.5505 6.11798C29.0732 6.64065 29.3341 7.26821 29.3332 8.00065V24.0007C29.3332 24.734 29.0723 25.362 28.5505 25.8847C28.0287 26.4073 27.4007 26.6682 26.6665 26.6673H5.33317C4.59984 26.6673 3.97228 26.4064 3.4505 25.8847C2.92873 25.3629 2.66739 24.7349 2.6665 24.0007V8.00065C2.6665 7.26732 2.92784 6.63976 3.4505 6.11798C3.97317 5.59621 4.60073 5.33487 5.33317 5.33398Z" fill="#E44D26"/>
</svg>
