<svg width="32" height="32" viewBox="0 0 32 32" fill="none" xmlns="http://www.w3.org/2000/svg">
<path d="M4.75906 28.4698L2.25781 0.416016H29.7418L27.2378 28.4655L15.9831 31.5855L4.75906 28.4698Z" fill="#E44D26"/>
<path d="M16 29.2L25.0945 26.6785L27.2342 2.70898H16V29.2Z" fill="#F16529"/>
<path d="M15.9998 13.1144H11.4468L11.1323 9.59089H15.9998V6.15039H7.37207L7.45457 7.07339L8.30007 16.5551H15.9998V13.1144ZM15.9998 22.0501L15.9846 22.0544L12.1528 21.0194L11.9081 18.2756H8.45382L8.93582 23.6779L15.9841 25.6344L15.9998 25.6301V22.0501Z" fill="#EBEBEB"/>
<path d="M15.9878 13.1144V16.5551H20.2245L19.8253 21.0174L15.9878 22.0531V25.6329L23.0415 23.6779L23.0933 23.0966L23.9018 14.0384L23.9855 13.1144H23.0585H15.9878ZM15.9878 6.15039V9.59089H24.2988L24.3678 8.81789L24.5248 7.07339L24.607 6.15039H15.9878Z" fill="white"/>
</svg>
