<svg width="61" height="32" viewBox="0 0 61 32" fill="none" xmlns="http://www.w3.org/2000/svg">
<g clip-path="url(#clip0_46_8)">
<path d="M30.3451 31.9052C47.1019 31.9052 60.6859 24.763 60.6859 15.9526C60.6859 7.14222 47.1019 0 30.3451 0C13.5884 0 0.00439453 7.14222 0.00439453 15.9526C0.00439453 24.763 13.5884 31.9052 30.3451 31.9052Z" fill="url(#paint0_radial_46_8)"/>
<path d="M30.345 30.7204C46.4472 30.7204 59.5006 24.1088 59.5006 15.953C59.5006 7.79714 46.4472 1.18555 30.345 1.18555C14.2428 1.18555 1.18945 7.79714 1.18945 15.953C1.18945 24.1088 14.2428 30.7204 30.345 30.7204Z" fill="#6181B6"/>
<path d="M36.2473 20.7408L37.6932 13.2978C38.025 11.6148 37.7406 10.3585 36.8873 9.57632C36.0576 8.8178 34.6354 8.43854 32.5495 8.43854H30.0369L30.748 4.74076C30.7717 4.59854 30.748 4.45632 30.6532 4.3378C30.5584 4.21928 30.4398 4.17188 30.2976 4.17188H26.8369C26.5998 4.17188 26.4102 4.3378 26.3628 4.55113L24.8221 12.4445C24.6798 11.5437 24.348 10.7852 23.7791 10.1689C22.7598 9.00743 21.1717 8.41484 19.0147 8.41484H12.3539C12.1169 8.41484 11.9273 8.58076 11.8798 8.7941L8.77466 24.8178C8.75096 24.96 8.77466 25.1022 8.86948 25.2208C8.96429 25.3393 9.08281 25.3867 9.22503 25.3867H12.7095C12.9465 25.3867 13.1361 25.2208 13.1836 25.0074L13.9421 21.1437H16.5258C17.8769 21.1437 19.0384 21.0015 19.9154 20.7171C20.8398 20.4089 21.6695 19.9111 22.4043 19.2237C22.9969 18.6785 23.4947 18.0622 23.8739 17.3985L23.2576 20.5985C23.2339 20.7408 23.2576 20.883 23.3524 21.0015C23.4473 21.12 23.5658 21.1674 23.708 21.1674H27.1687C27.4058 21.1674 27.5954 21.0015 27.6428 20.7882L29.3495 12.0178H31.7198C32.7391 12.0178 33.0235 12.2074 33.1184 12.3022C33.1895 12.3734 33.3317 12.6578 33.1658 13.5348L31.791 20.6222C31.7673 20.7645 31.791 20.9067 31.8858 21.0252C31.9806 21.1437 32.0991 21.1911 32.2413 21.1911H35.7969C36.0102 21.12 36.1998 20.9541 36.2473 20.7408ZM20.2236 14.5778C20.0102 15.6919 19.6073 16.4978 19.0147 16.9482C18.4221 17.3985 17.4502 17.6356 16.1702 17.6356H14.6295L15.7436 11.8993H17.7347C19.2043 11.8993 19.7969 12.2074 20.0339 12.4682C20.3421 12.8474 20.4132 13.5822 20.2236 14.5778ZM51.0384 10.1689C50.0191 9.00743 48.431 8.41484 46.2739 8.41484H39.5658C39.3287 8.41484 39.1391 8.58076 39.0917 8.7941L35.9865 24.7941C35.9628 24.9363 35.9865 25.0785 36.0813 25.1971C36.1761 25.3156 36.2947 25.363 36.4369 25.363H39.9213C40.1584 25.363 40.348 25.1971 40.3954 24.9837L41.1539 21.12H43.7376C45.0887 21.12 46.2502 20.9778 47.1273 20.6934C48.0517 20.3852 48.8813 19.8874 49.6161 19.2C50.2324 18.6311 50.7539 17.9911 51.1332 17.3037C51.5124 16.6163 51.7969 15.8578 51.9628 15.0282C52.3658 12.966 52.0576 11.3541 51.0384 10.1689ZM47.4117 14.5778C47.1984 15.6919 46.7954 16.4978 46.2028 16.9482C45.6102 17.3985 44.6384 17.6356 43.3584 17.6356H41.8176L42.9317 11.8993H44.9228C46.3924 11.8993 46.985 12.2074 47.2221 12.4682C47.5539 12.8474 47.625 13.5822 47.4117 14.5778Z" fill="white"/>
<path d="M17.7345 11.4257C19.0619 11.4257 19.9389 11.6628 20.3893 12.1606C20.8396 12.6583 20.9345 13.488 20.6974 14.6732C20.4604 15.9057 19.9863 16.8065 19.2989 17.328C18.6115 17.8494 17.5685 18.1102 16.17 18.1102H14.0604L15.3641 11.4257H17.7345ZM9.24854 24.8894H12.733L13.5626 20.6465H16.5493C17.8767 20.6465 18.9433 20.5043 19.7967 20.2198C20.65 19.9354 21.4085 19.485 22.1196 18.8213C22.7122 18.2761 23.1863 17.6835 23.5419 17.0435C23.8974 16.4035 24.1582 15.6924 24.3004 14.9102C24.6796 13.0139 24.3952 11.5443 23.4708 10.4776C22.5463 9.41093 21.0767 8.88945 19.0619 8.88945H12.3537L9.24854 24.8894ZM26.8604 4.64648H30.3211L29.4915 8.88945H32.573C34.5167 8.88945 35.8441 9.2213 36.5789 9.90871C37.3137 10.5961 37.5271 11.6865 37.2426 13.2035L35.7967 20.6465H32.2885L33.6633 13.5591C33.8293 12.7532 33.7582 12.208 33.4974 11.9235C33.2367 11.6391 32.6441 11.4732 31.7671 11.4732H28.9937L27.2159 20.6465H23.7552L26.8604 4.64648ZM44.9226 11.4257C46.25 11.4257 47.1271 11.6628 47.5774 12.1606C48.0278 12.6583 48.1226 13.488 47.8856 14.6732C47.6485 15.9057 47.1745 16.8065 46.4871 17.328C45.7996 17.8494 44.7567 18.1102 43.3582 18.1102H41.2485L42.5522 11.4257H44.9226ZM36.4367 24.8894H39.9211L40.7508 20.6465H43.7374C45.0648 20.6465 46.1315 20.5043 46.9848 20.2198C47.8382 19.9354 48.5967 19.485 49.3078 18.8213C49.9004 18.2761 50.3745 17.6835 50.73 17.0435C51.0856 16.4035 51.3463 15.6924 51.4885 14.9102C51.8678 13.0139 51.5833 11.5443 50.6589 10.4776C49.7345 9.41093 48.2648 8.88945 46.25 8.88945H39.5419L36.4367 24.8894Z" fill="#000004"/>
</g>
<defs>
<radialGradient id="paint0_radial_46_8" cx="0" cy="0" r="1" gradientUnits="userSpaceOnUse" gradientTransform="translate(18.2211 5.61008) scale(39.8448 39.8448)">
<stop stop-color="white"/>
<stop offset="0.5" stop-color="#4C6B97"/>
<stop offset="1" stop-color="#231F20"/>
</radialGradient>
<clipPath id="clip0_46_8">
<rect width="60.69" height="32" fill="white"/>
</clipPath>
</defs>
</svg>
