<svg width="33" height="32" viewBox="0 0 33 32" fill="none" xmlns="http://www.w3.org/2000/svg">
<path d="M5.53935 4.5791L17.1927 16.0071L5.62602 27.5404C5.43726 27.2937 5.29041 27.0175 5.19135 26.7231C5.13934 26.3896 5.13934 26.05 5.19135 25.7164V6.08976C5.15669 5.5631 5.27802 5.03643 5.53802 4.5791M22.2127 11.0231L18.4087 14.7911L6.89402 3.4671C7.26735 3.33776 7.66735 3.30176 8.05802 3.3631C8.67135 3.5311 9.25669 3.78976 9.79402 4.1271L20.2154 9.89376C20.8927 10.2578 21.5527 10.6404 22.2127 11.0231ZM18.41 17.2404L22.1954 20.9578L19.4514 22.4858L11.0794 27.1391C10.386 27.5218 9.69002 27.8871 9.01269 28.3044C8.72293 28.485 8.39793 28.6017 8.05945 28.6465C7.72097 28.6913 7.37681 28.6634 7.05002 28.5644L18.41 17.2404ZM28.2234 16.0071C28.2338 16.4735 28.1163 16.9338 27.8836 17.3381C27.6509 17.7424 27.3119 18.0752 26.9034 18.3004L23.7754 20.0364L19.6594 16.0071L23.7927 11.9084C24.8527 12.4991 25.8954 13.0898 26.9367 13.6458C27.3522 13.8776 27.6935 14.2225 27.921 14.6405C28.1485 15.0584 28.2542 15.5323 28.2234 16.0071Z" fill="black"/>
</svg>
