<svg width="33" height="32" viewBox="0 0 33 32" fill="none" xmlns="http://www.w3.org/2000/svg">
<g clip-path="url(#clip0_25_49)">
<path d="M16.2002 32C25.0368 32 32.2002 24.8366 32.2002 16C32.2002 7.16344 25.0368 0 16.2002 0C7.36364 0 0.200195 7.16344 0.200195 16C0.200195 24.8366 7.36364 32 16.2002 32Z" fill="url(#paint0_linear_25_49)"/>
<path d="M23.59 14.4723C23.6207 14.4398 23.6412 14.399 23.6489 14.3549C23.6566 14.3109 23.6512 14.2655 23.6334 14.2245C23.6155 14.1835 23.586 14.1486 23.5486 14.1242C23.5111 14.0998 23.4672 14.087 23.4225 14.0873H16.4175C15.99 14.0873 16.06 13.8573 16.2125 13.5773C16.365 13.2948 20.24 6.22732 20.24 6.22732C20.2575 6.18982 20.2675 6.15232 20.2675 6.10982C20.2674 6.05657 20.2516 6.00455 20.222 5.96025C20.1925 5.91596 20.1505 5.88137 20.1014 5.86081C20.0523 5.84026 19.9982 5.83466 19.9459 5.84471C19.8937 5.85476 19.8455 5.88002 19.8075 5.91732L8.825 16.8623C8.7775 16.9073 8.75 16.9673 8.75 17.0373C8.75 17.1698 8.8575 17.2773 8.99 17.2773H16.4825C16.9525 17.2773 16.785 17.5473 16.67 17.7048C16.555 17.8623 10.8825 25.7048 10.8825 25.7048C10.8508 25.7467 10.8315 25.7966 10.8266 25.8488C10.8217 25.9011 10.8315 25.9537 10.8549 26.0007C10.8783 26.0477 10.9143 26.0873 10.9589 26.115C11.0035 26.1426 11.055 26.1573 11.1075 26.1573C11.185 26.1573 11.255 26.1273 11.305 26.0773C11.355 26.0273 23.5875 14.4823 23.5875 14.4823L23.59 14.4798L23.595 14.4748L23.59 14.4723Z" fill="white"/>
</g>
<defs>
<linearGradient id="paint0_linear_25_49" x1="16.2002" y1="0" x2="16.2002" y2="32" gradientUnits="userSpaceOnUse">
<stop stop-color="#7ACBD4"/>
<stop offset="1" stop-color="#29C6B7"/>
</linearGradient>
<clipPath id="clip0_25_49">
<rect width="32" height="32" fill="white" transform="translate(0.200195)"/>
</clipPath>
</defs>
</svg>
