<svg width="32" height="32" viewBox="0 0 32 32" fill="none" xmlns="http://www.w3.org/2000/svg">
<path fill-rule="evenodd" clip-rule="evenodd" d="M16 2C18.7689 2 21.4757 2.82109 23.778 4.35943C26.0803 5.89777 27.8747 8.08427 28.9343 10.6424C29.9939 13.2006 30.2712 16.0155 29.731 18.7313C29.1908 21.447 27.8574 23.9416 25.8995 25.8995C23.9416 27.8574 21.447 29.1908 18.7313 29.731C16.0155 30.2712 13.2006 29.9939 10.6424 28.9343C8.08427 27.8747 5.89777 26.0803 4.35943 23.778C2.82109 21.4757 2 18.7689 2 16C2 12.287 3.475 8.72601 6.1005 6.1005C8.72601 3.475 12.287 2 16 2Z" fill="#CC6699"/>
<path d="M24.7822 7.99191C24.1482 5.50591 20.0252 4.69191 16.1232 6.07391C13.6794 6.89494 11.4217 8.19 9.47919 9.88491C7.33019 11.8949 6.98719 13.6449 7.12819 14.3759C7.62819 16.9559 11.1612 18.6419 12.6142 19.8929V19.8999C12.1862 20.1109 9.05019 21.6999 8.31419 23.3199C7.54019 25.0319 8.43719 26.2599 9.03219 26.4249C9.92551 26.64 10.8637 26.57 11.7153 26.2248C12.5668 25.8795 13.2889 25.2764 13.7802 24.4999C14.1865 23.871 14.4408 23.156 14.5227 22.4117C14.6046 21.6674 14.512 20.9142 14.2522 20.2119C14.9519 20.0331 15.6796 19.9913 16.3952 20.0889C18.8512 20.3759 19.3332 21.9089 19.2412 22.5509C19.1979 22.7794 19.1059 22.996 18.9715 23.1858C18.8371 23.3756 18.6634 23.5342 18.4622 23.6509C18.2902 23.7579 18.2372 23.7939 18.2522 23.8739C18.2732 23.9889 18.3522 23.9849 18.4992 23.9599C18.8683 23.8437 19.1935 23.6184 19.432 23.3136C19.6705 23.0089 19.811 22.6391 19.8352 22.2529C19.8942 20.7529 18.4532 19.0669 15.9012 19.1099C15.16 19.0881 14.4202 19.1895 13.7122 19.4099L13.6042 19.2899C12.0262 17.6069 9.11019 16.4159 9.23319 14.1529C9.27819 13.3299 9.56419 11.1639 14.8332 8.53591C19.1532 6.38291 22.6112 6.97591 23.2092 8.28891C24.0632 10.1649 21.3612 13.6499 16.8752 14.1529C16.3794 14.2536 15.8672 14.2413 15.3768 14.117C14.8864 13.9927 14.4302 13.7596 14.0422 13.4349C13.8062 13.1749 13.7712 13.1639 13.6832 13.2119C13.5402 13.2909 13.6312 13.5209 13.6832 13.6569C13.855 13.9665 14.0869 14.2386 14.3652 14.4574C14.6436 14.6761 14.9628 14.8371 15.3042 14.9309C17.068 15.3136 18.9075 15.1317 20.5622 14.4109C23.2832 13.3619 25.4052 10.4369 24.7822 7.99191ZM13.2182 20.6629C13.4158 21.3477 13.4057 22.0758 13.1892 22.7549C13.1659 22.8256 13.1402 22.8956 13.1122 22.9649C13.0842 23.0342 13.0539 23.1009 13.0212 23.1649C12.8518 23.5086 12.6339 23.8262 12.3742 24.1079C11.5612 24.9949 10.4242 25.3309 9.93719 25.0479C9.41119 24.7429 9.67419 23.4919 10.6172 22.4949C11.342 21.7787 12.1774 21.1838 13.0912 20.7329L13.2182 20.6629Z" fill="white"/>
</svg>
