<svg width="36" height="32" viewBox="0 0 36 32" fill="none" xmlns="http://www.w3.org/2000/svg">
<g clip-path="url(#clip0_25_96)">
<path d="M17.7304 32.0105L24.1174 12.3535H11.3433L17.7304 32.0105Z" fill="#E24329"/>
<path d="M17.7307 32.0105L11.3436 12.3535H2.39258L17.7307 32.0105Z" fill="#FC6D26"/>
<path d="M2.39233 12.3535L0.451451 18.3272C0.365153 18.5928 0.365141 18.8788 0.451417 19.1444C0.537692 19.41 0.705826 19.6414 0.931722 19.8056L17.7305 32.0106L2.39233 12.3535Z" fill="#FCA326"/>
<path d="M2.39258 12.3528H11.3436L7.49698 0.513505C7.29902 -0.0957153 6.43719 -0.0955797 6.23936 0.513505L2.39258 12.3528Z" fill="#E24329"/>
<path d="M17.7305 32.0105L24.1175 12.3535H33.0686L17.7305 32.0105Z" fill="#FC6D26"/>
<path d="M33.0686 12.3535L35.0095 18.3272C35.0958 18.5928 35.0958 18.8789 35.0095 19.1444C34.9232 19.41 34.755 19.6415 34.5291 19.8056L17.7305 32.0106L33.0686 12.3535Z" fill="#FCA326"/>
<path d="M33.0689 12.3528H24.1177L27.9645 0.513505C28.1624 -0.0957153 29.0243 -0.0955797 29.2221 0.513505L33.0689 12.3528Z" fill="#E24329"/>
</g>
<defs>
<clipPath id="clip0_25_96">
<rect width="34.72" height="32" fill="white" transform="translate(0.360352)"/>
</clipPath>
</defs>
</svg>
