<svg width="41" height="32" viewBox="0 0 41 32" fill="none" xmlns="http://www.w3.org/2000/svg">
<g clip-path="url(#clip0_25_40)">
<path d="M8.34217 0C6.05088 0 4.35535 2.00549 4.43127 4.18039C4.50421 6.2698 4.40946 8.97616 3.72821 11.1831C3.04492 13.3964 1.88915 14.7984 0.00146484 14.9785V17.0108C1.88915 17.1909 3.04492 18.5929 3.72821 20.8064C4.40946 23.0133 4.50421 25.7194 4.43127 27.8089C4.35535 29.9835 6.05088 31.9893 8.34248 31.9893H31.8206C34.1121 31.9893 35.8071 29.9838 35.7312 27.8089C35.6584 25.7195 35.753 23.0133 36.4343 20.8064C37.118 18.5931 38.2706 17.1907 40.1583 17.0108V14.9785C38.2706 14.7984 37.118 13.3964 36.4344 11.1831C35.753 8.97647 35.6584 6.26996 35.7312 4.18039C35.8071 2.0058 34.1121 0 31.8206 0H8.34186H8.34217ZM27.2266 19.6915C27.2266 22.6863 24.9928 24.5024 21.2859 24.5024H14.9753C14.7948 24.5024 14.6217 24.4307 14.4941 24.303C14.3665 24.1754 14.2948 24.0023 14.2948 23.8218V8.16753C14.2948 8.07814 14.3124 7.98961 14.3466 7.90702C14.3808 7.82442 14.4309 7.74937 14.4941 7.68615C14.5573 7.62293 14.6323 7.57278 14.7149 7.53857C14.7975 7.50436 14.886 7.48675 14.9754 7.48675H21.2498C24.3408 7.48675 26.3693 9.16126 26.3693 11.7319C26.3693 13.5363 25.0046 15.1517 23.2661 15.4345V15.5288C25.633 15.7884 27.2266 17.4275 27.2266 19.6915ZM20.5975 9.64439H16.9996V14.7267H20.0302C22.3728 14.7267 23.6647 13.7834 23.6647 12.0971C23.6647 10.517 22.5536 9.64439 20.5975 9.64439ZM16.9997 16.7434V22.3442H20.7302C23.1692 22.3442 24.4614 21.3655 24.4614 19.5261C24.4614 17.6864 23.1332 16.7431 20.5734 16.7431H16.9997V16.7434Z" fill="#7E13F8"/>
</g>
<defs>
<clipPath id="clip0_25_40">
<rect width="40.16" height="32" fill="white"/>
</clipPath>
</defs>
</svg>
