<svg width="32" height="32" viewBox="0 0 32 32" fill="none" xmlns="http://www.w3.org/2000/svg">
<path d="M9.13324 22.8671L4.86657 20.5337L6.26657 19.1337L9.5999 19.6004L14.7999 14.4004L4.3999 8.73372L6.26657 6.86706L18.9999 10.1337L24.2332 4.96706C24.611 4.58928 25.0835 4.40039 25.6506 4.40039C26.2177 4.40039 26.6897 4.58928 27.0666 4.96706C27.4435 5.34484 27.6323 5.81728 27.6332 6.38439C27.6341 6.9515 27.4452 7.4235 27.0666 7.80039L21.8666 13.0004L25.1332 25.7337L23.2666 27.6004L17.5999 17.2004L12.3999 22.4004L12.8666 25.7337L11.4666 27.1337L9.13324 22.8671Z" fill="#0091E6"/>
</svg>
