<svg width="32" height="32" viewBox="0 0 32 32" fill="none" xmlns="http://www.w3.org/2000/svg">
<path d="M4.70344 28.5306L2.18994 0.337891H29.8099L27.2939 28.5264L15.9832 31.6621L4.70344 28.5306Z" fill="#1572B6"/>
<path d="M16.0005 29.2651L25.1402 26.7311L27.2905 2.64258H16.0005V29.2651Z" fill="#33A9DC"/>
<path d="M16.0005 12.8579H20.576L20.892 9.31712H16.0005V5.85938H24.671L24.588 6.78713L23.738 16.3156H16.0005V12.8579Z" fill="white"/>
<path d="M16.0207 21.8379L16.0055 21.8424L12.1547 20.8027L11.9085 18.0449H8.43799L8.92224 23.4742L16.005 25.4399L16.0207 25.4354V21.8379Z" fill="#EBEBEB"/>
<path d="M20.2818 16.168L19.8653 20.7985L16.0088 21.8395V25.437L23.0973 23.4725L23.1493 22.8882L23.7508 16.168H20.2818Z" fill="white"/>
<path d="M16.0121 5.85938V9.31712H7.66009L7.59084 8.54013L7.43334 6.78713L7.35059 5.85938H16.0121ZM16.0003 12.8584V16.3161H12.1981L12.1288 15.5391L11.9711 13.7861L11.8886 12.8584H16.0003Z" fill="#EBEBEB"/>
</svg>
