<svg width="33" height="32" viewBox="0 0 33 32" fill="none" xmlns="http://www.w3.org/2000/svg">
<g clip-path="url(#clip0_25_69)">
<path d="M0.540039 0V32H32.54V0H0.540039ZM16.6547 4.864C19.3843 4.80901 22.025 5.8351 24.0014 7.71867L21.5774 10.6947C20.9267 10.292 18.2307 8.74133 16.0814 9.18C14.4507 9.51333 14.2814 10.6307 14.2734 10.7293C14.232 11.2267 14.7587 12.0133 15.2307 12.26C17.4387 13.404 20.2454 14.3413 21.3867 14.9587C24.656 16.7253 24.904 19.388 24.4467 21.456C23.244 26.912 15.352 27.9027 10.4254 24.9733C9.73225 24.5694 9.0941 24.0778 8.52671 23.5107L11.2427 20.2547C11.668 20.5067 11.8427 20.7987 13.2227 21.528C16.516 23.272 18.732 22.0587 18.9427 21.9173C19.6467 21.4427 19.672 20.6413 19.66 20.3773C19.62 19.5413 18.9907 19.084 18.1734 18.7293C16.8267 18.1453 14.5734 17.252 13.0134 16.5333C10.764 15.4973 9.33737 13.8053 9.33337 11.224C9.32937 6.94533 13.1027 5.54267 14.5467 5.16133C15.2353 4.98225 15.9421 4.88249 16.6534 4.864H16.6547Z" fill="black"/>
</g>
<defs>
<clipPath id="clip0_25_69">
<rect width="32" height="32" fill="white" transform="translate(0.540039)"/>
</clipPath>
</defs>
</svg>
