<svg width="32" height="32" viewBox="0 0 32 32" fill="none" xmlns="http://www.w3.org/2000/svg">
<path d="M2 2H30V30H2V2Z" fill="#F5DE19"/>
<path d="M20.8091 23.8744C21.048 24.3587 21.4188 24.7657 21.8787 25.0487C22.3386 25.3318 22.8691 25.4793 23.4091 25.4744C24.4991 25.4744 25.1961 24.9294 25.1961 24.1744C25.1961 23.2744 24.4801 22.9524 23.2801 22.4274L22.6221 22.1454C20.7221 21.3364 19.4621 20.3234 19.4621 18.1814C19.4621 16.2084 20.9621 14.7054 23.3151 14.7054C24.0768 14.6505 24.8377 14.821 25.5032 15.1957C26.1686 15.5704 26.709 16.1326 27.0571 16.8124L25.0001 18.1274C24.866 17.7904 24.6327 17.5021 24.331 17.3006C24.0294 17.0992 23.6737 16.9941 23.3111 16.9994C23.1528 16.9835 22.993 17.0008 22.8418 17.0502C22.6907 17.0995 22.5514 17.1798 22.433 17.2859C22.3145 17.392 22.2195 17.5216 22.1539 17.6665C22.0883 17.8114 22.0536 17.9683 22.0521 18.1274C22.0521 18.9164 22.5411 19.2364 23.6701 19.7274L24.3281 20.0094C26.5641 20.9684 27.8281 21.9454 27.8281 24.1424C27.8281 26.5114 25.9671 27.8094 23.4681 27.8094C22.4945 27.8708 21.5239 27.6494 20.6732 27.172C19.8224 26.6946 19.1279 25.9814 18.6731 25.1184L20.8091 23.8744ZM11.5141 24.1024C11.9271 24.8354 12.3031 25.4554 13.2071 25.4554C14.0711 25.4554 14.6171 25.1174 14.6171 23.8024V14.8554H17.2481V23.8374C17.2481 26.5614 15.6481 27.8014 13.3191 27.8014C12.4958 27.8464 11.6782 27.6412 10.9738 27.2128C10.2693 26.7845 9.71093 26.153 9.37207 25.4014L11.5141 24.1024Z" fill="black"/>
</svg>
