<svg width="33" height="32" viewBox="0 0 33 32" fill="none" xmlns="http://www.w3.org/2000/svg">
<g clip-path="url(#clip0_25_76)">
<path d="M31.7243 14.5943L17.9453 0.815828C17.1523 0.0223281 15.8653 0.0223281 15.071 0.815828L12.21 3.67733L15.8395 7.30683C16.6833 7.02208 17.6503 7.21308 18.3225 7.88533C18.9983 8.56183 19.1878 9.53708 18.896 10.3836L22.394 13.8818C23.2403 13.5901 24.217 13.7786 24.8925 14.4556C25.8375 15.3998 25.8375 16.9306 24.8925 17.8753C24.668 18.1 24.4013 18.2782 24.1079 18.3998C23.8144 18.5214 23.4998 18.584 23.1822 18.584C22.8645 18.584 22.5499 18.5214 22.2565 18.3998C21.963 18.2782 21.6964 18.1 21.4718 17.8753C21.1345 17.5377 20.9045 17.1078 20.8109 16.6398C20.7173 16.1718 20.7641 15.6865 20.9455 15.2451L17.6835 11.9831L17.683 20.5683C17.9197 20.6848 18.1358 20.8392 18.3228 21.0253C19.2673 21.9696 19.2673 23.4998 18.3228 24.4461C17.378 25.3903 15.8468 25.3903 14.903 24.4461C13.9585 23.5001 13.9585 21.9698 14.903 21.0253C15.1295 20.7989 15.3986 20.6197 15.6948 20.4978V11.8331C15.3983 11.7118 15.1291 11.5323 14.903 11.3053C14.1875 10.5903 14.0153 9.54033 14.3823 8.66133L10.804 5.08308L1.35604 14.5306C0.974872 14.9119 0.760742 15.4289 0.760742 15.9681C0.760742 16.5072 0.974872 17.0243 1.35604 17.4056L15.1353 31.1841C15.9288 31.9776 17.2153 31.9776 18.01 31.1841L31.7245 17.4696C32.1056 17.0882 32.3197 16.5711 32.3196 16.0319C32.3196 15.4927 32.1055 14.9757 31.7243 14.5943Z" fill="#F34F29"/>
</g>
<defs>
<clipPath id="clip0_25_76">
<rect width="32" height="32" fill="white" transform="translate(0.540039)"/>
</clipPath>
</defs>
</svg>
