<svg width="48" height="48" viewBox="0 0 48 48" fill="none" xmlns="http://www.w3.org/2000/svg">
<rect width="48" height="48" rx="24" fill="#F3B101"/>
<path fill-rule="evenodd" clip-rule="evenodd" d="M34.053 25.0984C34.598 24.8462 35.0685 24.3786 35.0685 23.7781C35.0685 23.1777 34.598 22.71 34.053 22.4579C33.8044 22.3428 33.5929 22.1945 33.4185 22.0129C33.0268 21.6207 32.8309 21.1058 32.8309 20.4684C32.8309 19.88 32.8911 18.8013 33.0117 17.2323C33.1473 15.7613 33.2151 14.5845 33.2151 13.7019C33.2151 12.5415 32.9062 11.6344 32.2884 10.9806C31.6555 10.3269 30.8268 10 29.8021 10H25.3071C25.1948 10 25.0861 10.0152 24.983 10.0438C24.8778 10.0153 24.7671 10 24.6529 10C23.958 10 23.3947 10.5634 23.3947 11.2583V19.9152C23.3947 20.6102 23.958 21.1735 24.6529 21.1735C25.3479 21.1735 25.9112 20.6102 25.9112 19.9152V12.4271H29.2823C29.7645 12.4271 30.1261 12.5497 30.3672 12.7948C30.5932 13.0237 30.7062 13.3996 30.7062 13.9226C30.7062 14.3149 30.6836 14.8379 30.6384 15.4916C30.5932 16.1454 30.5631 16.6112 30.548 16.8891C30.4124 18.3927 30.3446 19.6185 30.3446 20.5665C30.3446 21.4 30.5405 22.0947 30.9323 22.6504C31.3052 23.2005 31.8848 23.5664 32.6713 23.7481C32.6852 23.7513 32.6953 23.7638 32.6953 23.7781C32.6953 23.7924 32.6852 23.8049 32.6713 23.8081C31.8848 23.9898 31.3052 24.3557 30.9323 24.9059C30.5405 25.4616 30.3446 26.1562 30.3446 26.9897C30.3446 27.9377 30.4124 29.1635 30.548 30.6672C30.5631 30.945 30.5932 31.4108 30.6384 32.0646C30.6836 32.7184 30.7062 33.2414 30.7062 33.6336C30.7062 34.1566 30.5932 34.5326 30.3672 34.7614C30.1261 35.0065 29.7645 35.1291 29.2823 35.1291H28.1032C27.433 35.1291 26.8897 35.6724 26.8897 36.3427C26.8897 37.0129 27.433 37.5562 28.1032 37.5562H29.8021C30.8268 37.5562 31.6555 37.2293 32.2884 36.5756C32.9062 35.9218 33.2151 35.0147 33.2151 33.8543C33.2151 32.9717 33.1473 31.7949 33.0117 30.3239C32.8911 28.7549 32.8309 27.6762 32.8309 27.0878C32.8309 26.4504 33.0268 25.9355 33.4185 25.5433C33.5929 25.3617 33.8044 25.2134 34.053 25.0984ZM13.0155 22.4579C12.4705 22.71 12 23.1777 12 23.7782C12 24.3786 12.4705 24.8463 13.0155 25.0984C13.2641 25.2134 13.4756 25.3617 13.65 25.5433C14.0418 25.9356 14.2376 26.4504 14.2376 27.0878C14.2376 27.6762 14.1774 28.7549 14.0568 30.324C13.9212 31.795 13.8534 32.9717 13.8534 33.8543C13.8534 35.0147 14.1623 35.9219 14.7801 36.5756C15.413 37.2294 16.2417 37.5563 17.2664 37.5563H22.4134L22.4156 37.5563L22.4179 37.5563H22.4605C23.1307 37.5563 23.6741 37.0129 23.6741 36.3427L23.6738 36.3168L23.6739 36.298V27.6411C23.6739 26.9461 23.1106 26.3828 22.4156 26.3828C21.7207 26.3828 21.1574 26.9461 21.1574 27.6411V35.1292H17.7862C17.304 35.1292 16.9424 35.0066 16.7013 34.7614C16.4753 34.5326 16.3623 34.1567 16.3623 33.6337C16.3623 33.2414 16.3849 32.7184 16.4301 32.0646C16.4753 31.4109 16.5054 30.9451 16.5205 30.6672C16.6561 29.1635 16.7239 27.9377 16.7239 26.9898C16.7239 26.1562 16.528 25.4616 16.1363 24.9059C15.7633 24.3558 15.1837 23.9899 14.3973 23.8081C14.3833 23.8049 14.3733 23.7925 14.3733 23.7782C14.3733 23.7638 14.3833 23.7514 14.3973 23.7482C15.1837 23.5664 15.7633 23.2005 16.1363 22.6504C16.528 22.0947 16.7239 21.4001 16.7239 20.5665C16.7239 19.6186 16.6561 18.3928 16.5205 16.8891C16.5054 16.6112 16.4753 16.1454 16.4301 15.4917C16.3849 14.8379 16.3623 14.3149 16.3623 13.9226C16.3623 13.3996 16.4753 13.0237 16.7013 12.7949C16.9424 12.5497 17.304 12.4271 17.7862 12.4271H18.9653C19.6355 12.4271 20.1788 11.8838 20.1788 11.2136C20.1788 10.5434 19.6355 10 18.9653 10H17.2664C16.2417 10 15.413 10.3269 14.7801 10.9807C14.1623 11.6345 13.8534 12.5416 13.8534 13.702C13.8534 14.5846 13.9212 15.7613 14.0568 17.2323C14.1774 18.8014 14.2376 19.8801 14.2376 20.4685C14.2376 21.1059 14.0418 21.6207 13.65 22.013C13.4756 22.1946 13.2641 22.3429 13.0155 22.4579ZM26.68 13.3218H29.3362C29.6507 13.3218 29.8771 13.6239 29.7888 13.9258H26.68V13.3218ZM17.7294 34.5363H20.4233V34.0079H17.3475C17.2614 34.2681 17.4552 34.5363 17.7294 34.5363Z" fill="#161616"/>
</svg>
